<svg width="61" height="43" viewBox="0 0 61 43" fill="none" xmlns="http://www.w3.org/2000/svg">
<path d="M0 26.746C0 21.2993 2.02946 16.0533 6.08839 11.008C10.2045 5.96267 14.7779 2.29333 19.8087 0L21.438 3.44C17.4362 5.73333 14.0062 8.6 11.1478 12.04C8.34653 15.4227 6.94591 18.8627 6.94591 22.36C6.94591 23.048 7.146 23.564 7.54617 23.908C8.00352 24.252 8.5752 24.424 9.26121 24.424C12.9771 24.0227 14.978 23.822 15.2639 23.822C17.1504 23.822 19.1799 24.51 21.3522 25.886C23.5818 27.262 24.6966 29.6127 24.6966 32.938C24.6966 35.7473 23.7819 38.1267 21.9525 40.076C20.1231 42.0253 17.522 43 14.1491 43C10.2045 43 6.86016 41.4807 4.11609 38.442C1.37203 35.346 0 31.4473 0 26.746ZM36.3034 27.434C36.3034 21.2993 38.3615 15.7667 42.4776 10.836C46.6508 5.848 51.1957 2.236 56.1121 0L57.7414 3.44C53.7397 5.73333 50.3096 8.57133 47.4512 11.954C44.65 15.2793 43.2493 18.6907 43.2493 22.188C43.2493 22.8187 43.4208 23.3633 43.7639 23.822C44.1069 24.2233 44.7071 24.424 45.5646 24.424C49.2234 24.0227 51.2243 23.822 51.5673 23.822C53.6825 23.822 55.7691 24.596 57.8272 26.144C59.9424 27.6347 61 29.8707 61 32.852C61 35.2027 60.1711 37.496 58.5132 39.732C56.9125 41.9107 54.197 43 50.3668 43C46.2507 43 42.8777 41.4233 40.248 38.27C37.6183 35.0593 36.3034 31.4473 36.3034 27.434Z" fill="#C8E2DF" fill-opacity="0.35"/>
</svg>
