<svg width="1921" height="965" viewBox="0 0 1921 965" fill="none" xmlns="http://www.w3.org/2000/svg">
<g opacity="0.44">
<path d="M1768.55 457.901C1804.09 514.826 1884.33 516.236 1920 509.826V964.517H0V349.132C101.978 292.868 128.889 302.126 161.198 340.589C193.506 379.052 227.834 361.743 241.969 354.051C292.452 313.665 324.76 290.587 351.011 286.741C377.262 282.895 451.976 344.435 500.439 382.898C548.902 421.361 589.287 421.361 601.403 421.361C613.519 421.361 637.75 423.284 668.04 442.515C714.483 469.439 769.004 577.135 801.313 619.445C833.622 661.754 853.814 657.908 867.949 650.215C926.509 592.521 964.875 577.135 997.184 567.52C1069.88 507.902 1073.92 380.975 1081.99 330.973C1090.07 280.971 1118.34 284.818 1132.48 292.51C1174.88 323.281 1193.06 307.895 1211.23 300.203C1300.08 232.893 1308.15 234.816 1330.37 240.585C1352.58 246.355 1388.93 342.512 1405.08 400.206C1421.24 457.901 1439.41 440.592 1443.45 427.13C1461.62 396.36 1508.06 96.3498 1526.24 34.8092C1548.45 -24.8082 1572.68 9.80836 1582.78 23.2704C1613.07 57.887 1673.65 379.052 1683.74 440.592C1693.84 502.133 1714.03 457.901 1718.07 457.901C1742.3 427.131 1760.48 446.362 1768.55 457.901Z" fill="url(#paint0_linear_13_4590)" fill-opacity="0.5"/>
<path d="M1920 509.826C1884.33 516.236 1804.09 514.826 1768.55 457.901C1760.48 446.362 1742.3 427.131 1718.07 457.901C1714.03 457.901 1693.84 502.133 1683.74 440.593C1673.65 379.052 1613.07 57.8869 1582.78 23.2704C1572.68 9.80836 1548.45 -24.8082 1526.24 34.8092C1508.06 96.3498 1461.62 396.36 1443.45 427.13C1439.41 440.592 1421.24 457.901 1405.08 400.206C1388.93 342.512 1352.58 246.355 1330.37 240.585C1308.15 234.816 1300.08 232.893 1211.23 300.203C1193.06 307.895 1174.88 323.281 1132.48 292.51C1118.34 284.818 1090.07 280.971 1081.99 330.973C1073.92 380.975 1069.88 507.902 997.184 567.52C964.875 577.135 926.509 592.521 867.949 650.215C853.814 657.908 833.621 661.754 801.313 619.445C769.004 577.135 714.483 469.439 668.04 442.515C637.75 423.284 613.519 421.361 601.403 421.361C589.287 421.361 548.901 421.361 500.438 382.898C451.976 344.435 414.945 286.741 351.011 286.741C324.48 286.741 292.451 313.665 241.969 354.051C227.834 361.743 189.485 382.099 161.197 340.589C140.659 310.451 56.2636 289.352 3.51634 354.051" stroke="#3BE8D3" stroke-width="2" stroke-linecap="round" stroke-linejoin="round"/>
</g>
<defs>
<linearGradient id="paint0_linear_13_4590" x1="991.649" y1="1" x2="991.649" y2="971.55" gradientUnits="userSpaceOnUse">
<stop stop-color="#3BE8D3" stop-opacity="0.6"/>
<stop offset="1" stop-color="#3BE8D3" stop-opacity="0"/>
</linearGradient>
</defs>
</svg>
