<svg preserveAspectRatio="xMidYMid meet" width="100%" height="100%" overflow="visible" style="display: block;" viewBox="0 0 21.7523 22.4667" fill="none" xmlns="http://www.w3.org/2000/svg">
<g id="Vector" filter="url(#filter0_d_0_26)">
<path fill-rule="evenodd" clip-rule="evenodd" d="M6.59321 19.7857H2.15821L7.06285 9.53429L9.28499 14.1093L6.59321 19.7857ZM7.38321 8.55464C7.35374 8.49429 7.30792 8.44342 7.25097 8.40781C7.19402 8.3722 7.12823 8.35329 7.06106 8.35321H7.05999C6.99254 8.35321 6.92647 8.37229 6.8694 8.40825C6.81233 8.44421 6.7666 8.49558 6.73749 8.55643L1.26821 19.9889C1.24218 20.0434 1.2304 20.1036 1.23395 20.1639C1.23751 20.2242 1.25629 20.2825 1.28854 20.3336C1.32078 20.3846 1.36545 20.4267 1.41836 20.4558C1.47126 20.4849 1.53068 20.5001 1.59107 20.5H6.81964C6.95821 20.5 7.08392 20.4204 7.14321 20.2957L10.0061 14.26C10.0289 14.2118 10.0406 14.159 10.0403 14.1057C10.04 14.0523 10.0277 13.9997 10.0043 13.9518L7.38321 8.55464ZM19.8028 19.7857H15.3975L8.32856 4.98929C8.29942 4.92829 8.25359 4.8768 8.19639 4.84077C8.13919 4.80474 8.07295 4.78565 8.00535 4.78571H5.12249L5.12571 1.21429H10.7757L17.8118 16.0104C17.8711 16.1346 17.9971 16.2143 18.1353 16.2143H19.8032L19.8028 19.7857ZM20.1611 15.5H18.3618L11.3261 0.703929C11.2969 0.642783 11.251 0.591167 11.1936 0.55507C11.1363 0.518974 11.0699 0.499879 11.0021 0.500001H4.76821C4.57071 0.500001 4.41035 0.659643 4.40999 0.856786L4.40642 5.1425C4.40638 5.18946 4.41559 5.23597 4.43354 5.27936C4.45149 5.32276 4.47782 5.36219 4.51103 5.3954C4.54423 5.4286 4.58366 5.45493 4.62706 5.47288C4.67045 5.49083 4.71696 5.50005 4.76392 5.5H7.77892L14.8478 20.2964C14.9075 20.4207 15.0325 20.5 15.1707 20.5H20.1607C20.2077 20.5001 20.2543 20.491 20.2977 20.4731C20.3412 20.4552 20.3807 20.4289 20.4139 20.3958C20.4472 20.3626 20.4736 20.3232 20.4916 20.2798C20.5096 20.2364 20.5189 20.1898 20.5189 20.1429V15.8571C20.5189 15.8102 20.5097 15.7637 20.4917 15.7203C20.4737 15.6769 20.4473 15.6375 20.4141 15.6044C20.3808 15.5712 20.3414 15.5449 20.298 15.527C20.2545 15.5091 20.208 15.4999 20.1611 15.5Z" fill="var(--fill-0, white)"/>
<path fill-rule="evenodd" clip-rule="evenodd" d="M6.59321 19.7857H2.15821L7.06285 9.53429L9.28499 14.1093L6.59321 19.7857ZM7.38321 8.55464C7.35374 8.49429 7.30792 8.44342 7.25097 8.40781C7.19402 8.3722 7.12823 8.35329 7.06106 8.35321H7.05999C6.99254 8.35321 6.92647 8.37229 6.8694 8.40825C6.81233 8.44421 6.7666 8.49558 6.73749 8.55643L1.26821 19.9889C1.24218 20.0434 1.2304 20.1036 1.23395 20.1639C1.23751 20.2242 1.25629 20.2825 1.28854 20.3336C1.32078 20.3846 1.36545 20.4267 1.41836 20.4558C1.47126 20.4849 1.53068 20.5001 1.59107 20.5H6.81964C6.95821 20.5 7.08392 20.4204 7.14321 20.2957L10.0061 14.26C10.0289 14.2118 10.0406 14.159 10.0403 14.1057C10.04 14.0523 10.0277 13.9997 10.0043 13.9518L7.38321 8.55464ZM19.8028 19.7857H15.3975L8.32856 4.98929C8.29942 4.92829 8.25359 4.8768 8.19639 4.84077C8.13919 4.80474 8.07295 4.78565 8.00535 4.78571H5.12249L5.12571 1.21429H10.7757L17.8118 16.0104C17.8711 16.1346 17.9971 16.2143 18.1353 16.2143H19.8032L19.8028 19.7857ZM20.1611 15.5H18.3618L11.3261 0.703929C11.2969 0.642783 11.251 0.591167 11.1936 0.55507C11.1363 0.518974 11.0699 0.499879 11.0021 0.500001H4.76821C4.57071 0.500001 4.41035 0.659643 4.40999 0.856786L4.40642 5.1425C4.40638 5.18946 4.41559 5.23597 4.43354 5.27936C4.45149 5.32276 4.47782 5.36219 4.51103 5.3954C4.54423 5.4286 4.58366 5.45493 4.62706 5.47288C4.67045 5.49083 4.71696 5.50005 4.76392 5.5H7.77892L14.8478 20.2964C14.9075 20.4207 15.0325 20.5 15.1707 20.5H20.1607C20.2077 20.5001 20.2543 20.491 20.2977 20.4731C20.3412 20.4552 20.3807 20.4289 20.4139 20.3958C20.4472 20.3626 20.4736 20.3232 20.4916 20.2798C20.5096 20.2364 20.5189 20.1898 20.5189 20.1429V15.8571C20.5189 15.8102 20.5097 15.7637 20.4917 15.7203C20.4737 15.6769 20.4473 15.6375 20.4141 15.6044C20.3808 15.5712 20.3414 15.5449 20.298 15.527C20.2545 15.5091 20.208 15.4999 20.1611 15.5Z" stroke="var(--stroke-0, white)"/>
</g>
<defs>
<filter id="filter0_d_0_26" x="0" y="0" width="21.7523" height="22.4667" filterUnits="userSpaceOnUse" color-interpolation-filters="sRGB">
<feFlood flood-opacity="0" result="BackgroundImageFix"/>
<feColorMatrix in="SourceAlpha" type="matrix" values="0 0 0 0 0 0 0 0 0 0 0 0 0 0 0 0 0 0 127 0" result="hardAlpha"/>
<feOffset dy="0.733333"/>
<feGaussianBlur stdDeviation="0.366667"/>
<feComposite in2="hardAlpha" operator="out"/>
<feColorMatrix type="matrix" values="0 0 0 0 0 0 0 0 0 0 0 0 0 0 0 0 0 0 0.15 0"/>
<feBlend mode="normal" in2="BackgroundImageFix" result="effect1_dropShadow_0_26"/>
<feBlend mode="normal" in="SourceGraphic" in2="effect1_dropShadow_0_26" result="shape"/>
</filter>
</defs>
</svg>
