<svg preserveAspectRatio="xMidYMid meet" width="100%" height="100%" overflow="visible" style="display: block;" viewBox="0 0 180 44" fill="none" xmlns="http://www.w3.org/2000/svg">
<g id="img_tableau_logo">
<path id="Vector" d="M18.8662 4.764V6.5352H15.6982V7.6872H18.8662V11.2152H20.1046V7.6872H23.3518V6.5352H20.1046V3H18.8662V4.764Z" fill="var(--fill-0, #7099A6)"/>
<path id="Vector_2" d="M8.51493 9.25692V11.8273H3.71973V13.4401H8.51493V18.6601H10.2933V13.4401H15.1605V11.8273H10.2933V6.68652H8.51493V9.25692Z" fill="var(--fill-0, #EB912C)"/>
<path id="Vector_3" d="M28.6097 9.25692V11.8273H23.8145V13.5193H28.6097V18.6601H30.4601V13.5193H35.2553V11.8273H30.4601V6.68652H28.6097V9.25692Z" fill="var(--fill-0, #59879B)"/>
<path id="Vector_4" fill-rule="evenodd" clip-rule="evenodd" d="M116.097 10.6753H118.567V32.5633H116.097V10.6753ZM95.6491 12.9793H98.1619V16.0177C98.1619 18.8689 98.1763 19.0417 98.2987 19.0057C98.3779 18.9769 98.7523 18.8761 99.1339 18.7681C99.5875 18.6457 100.135 18.5665 100.718 18.5305C101.38 18.5017 101.769 18.5233 102.259 18.6169C102.676 18.6961 103.173 18.8689 103.612 19.0849C103.994 19.2721 104.498 19.5889 104.736 19.7977C104.966 19.9993 105.333 20.4241 105.542 20.7409C105.758 21.0577 106.024 21.5617 106.14 21.8713C106.262 22.1737 106.413 22.7425 106.485 23.1385C106.572 23.6569 106.593 24.1033 106.564 24.8089C106.543 25.3345 106.464 25.9897 106.392 26.2633C106.327 26.5369 106.154 27.0049 106.017 27.3001C105.88 27.5953 105.607 28.0489 105.412 28.3009C105.225 28.5529 104.844 28.9273 104.57 29.1361C104.304 29.3449 103.814 29.6329 103.497 29.7769C103.18 29.9281 102.655 30.1153 102.338 30.2017C101.841 30.3385 101.524 30.3601 100.099 30.3673C98.7523 30.3745 98.3131 30.3457 97.7803 30.2305C97.4203 30.1513 96.8227 30.0001 96.4627 29.8993C96.1027 29.7985 95.7859 29.6833 95.7571 29.6545C95.7283 29.6257 95.6923 25.8673 95.6779 21.2953L95.6491 12.9793ZM98.7811 21.1729L98.2051 21.3745V27.7609C99.4147 28.0777 99.6739 28.0993 100.48 28.0777C101.272 28.0561 101.532 28.0201 101.913 27.8761C102.165 27.7753 102.518 27.5881 102.684 27.4513C102.856 27.3217 103.101 27.0769 103.231 26.9113C103.36 26.7457 103.548 26.4001 103.641 26.1481C103.742 25.8961 103.857 25.4137 103.9 25.0753C103.965 24.6145 103.965 24.2977 103.893 23.8081C103.836 23.3689 103.713 22.9729 103.533 22.5985C103.389 22.2889 103.137 21.9073 102.979 21.7489C102.82 21.5905 102.532 21.3673 102.338 21.2593C102.151 21.1441 101.784 21.0001 101.524 20.9353C101.272 20.8633 100.819 20.8129 100.524 20.8201C100.228 20.8273 99.8395 20.8633 99.6739 20.8993C99.5011 20.9353 99.1051 21.0577 98.7811 21.1729ZM54.7315 13.7497H57.2011V20.7337H63.8467V23.0377H57.2011V30.5617H54.7315V23.0377H48.0859V20.7337H54.7315V13.7497Z" fill="var(--fill-0, #1F447E)"/>
<path id="Vector_5" d="M18.4065 18.0118V20.8918H13.0713V23.0374H18.4065V28.7974H20.5665V23.0374H25.9017V20.8918H20.5665V15.1318H18.4065V18.0118Z" fill="var(--fill-0, #E8762C)"/>
<path id="Vector_6" d="M34.0958 19.4665V21.2737H30.8486V22.7353H34.0958V26.3425H35.7158V22.7353H38.963V21.2737H35.7158V17.6665H34.0958V19.4665Z" fill="var(--fill-0, #5B6591)"/>
<path id="Vector_7" d="M3.17874 19.625V21.353H0.0107422V22.577H3.17874V26.033H4.41714V22.577L7.66434 22.4618V21.353H4.41714V17.897H3.17874V19.625Z" fill="var(--fill-0, #7099A6)"/>
<path id="Vector_8" fill-rule="evenodd" clip-rule="evenodd" d="M81.2407 18.4297H83.7103V22.9801C83.7103 25.4857 83.6815 28.0273 83.5951 29.7265L82.9759 29.9137C82.6375 30.0145 81.9247 30.1729 81.3919 30.2665C80.5783 30.4033 80.2111 30.4177 79.0375 30.3889C77.9503 30.3601 77.5111 30.3169 77.0287 30.1945C76.6831 30.1009 76.0927 29.8777 75.7111 29.6905C75.3079 29.4889 74.8255 29.1721 74.5519 28.9345C74.2999 28.7041 73.9399 28.2937 73.7671 28.0273C73.5871 27.7537 73.3495 27.3217 73.2487 27.0697C73.1479 26.8177 72.9967 26.3137 72.9247 25.9609C72.8239 25.4425 72.8023 25.0609 72.8311 24.1537C72.8671 23.2825 72.9175 22.8577 73.0399 22.4257C73.1335 22.1089 73.3495 21.5905 73.5151 21.2737C73.6807 20.9569 74.0119 20.4745 74.2567 20.2081C74.5087 19.9345 74.9191 19.5745 75.1711 19.4017C75.4231 19.2361 75.8407 19.0129 76.0999 18.9121C76.3519 18.8113 76.8127 18.6745 77.1223 18.6169C77.4319 18.5593 78.0079 18.5089 78.3967 18.5089C78.7927 18.5089 79.3543 18.5665 79.6567 18.6241C79.9519 18.6889 80.4199 18.8473 80.7007 18.9769C80.9743 19.0993 81.2119 19.2073 81.2191 19.2001C81.2263 19.2001 81.2407 19.0273 81.2407 18.8185V18.4297ZM77.0359 21.2593C76.8271 21.3745 76.5247 21.6121 76.3591 21.7921C76.1935 21.9721 75.9703 22.2889 75.8695 22.5049C75.7615 22.7137 75.6247 23.1025 75.5599 23.3689C75.4951 23.6281 75.4447 24.1033 75.4447 24.4201C75.4447 24.7369 75.4807 25.2049 75.5239 25.4569C75.5743 25.7089 75.7039 26.1265 75.8263 26.3785C75.9703 26.6809 76.2007 26.9905 76.4959 27.2641C76.7839 27.5305 77.1223 27.7537 77.4175 27.8689C77.7775 28.0129 78.0655 28.0561 78.8071 28.0921C79.3327 28.1137 79.9951 28.0849 80.3479 28.0345C80.6863 27.9841 81.0031 27.9193 81.0535 27.8905C81.1111 27.8545 81.1543 26.8537 81.1903 24.7081L81.2407 21.5833C80.6071 21.2377 80.2543 21.0793 80.0383 21.0073C79.8295 20.9281 79.3399 20.8561 78.9583 20.8417C78.4831 20.8201 78.1303 20.8489 77.8351 20.9353C77.6047 21.0001 77.2447 21.1441 77.0359 21.2593ZM157.676 18.4297H160.145V22.2889C160.145 24.4129 160.124 26.9545 160.03 29.7265L159.411 29.9137C159.073 30.0145 158.389 30.1729 157.885 30.2521C157.244 30.3673 156.632 30.4105 155.804 30.4105C155.149 30.4105 154.393 30.3745 154.119 30.3313C153.845 30.2809 153.305 30.1441 152.924 30.0217C152.513 29.8921 151.981 29.6401 151.649 29.4241C151.325 29.2153 150.879 28.8481 150.649 28.5961C150.425 28.3513 150.109 27.9193 149.957 27.6457C149.806 27.3721 149.597 26.8681 149.497 26.5369C149.345 26.0545 149.302 25.6801 149.266 24.8089C149.245 24.1105 149.266 23.4913 149.324 23.1529C149.374 22.8577 149.504 22.3609 149.612 22.0441C149.713 21.7273 149.95 21.2233 150.137 20.9281C150.317 20.6329 150.706 20.1649 151.001 19.8913C151.333 19.5889 151.765 19.2793 152.117 19.1065C152.434 18.9553 152.895 18.7681 153.154 18.6961C153.406 18.6313 154.033 18.5521 154.544 18.5305C155.228 18.5017 155.624 18.5305 156.049 18.6169C156.373 18.6889 156.855 18.8473 157.136 18.9769C157.409 19.0993 157.647 19.2073 157.654 19.2001C157.669 19.2001 157.676 19.0273 157.676 18.8185V18.4297ZM153.471 21.2593C153.262 21.3745 152.96 21.6121 152.794 21.7921C152.629 21.9721 152.413 22.2889 152.305 22.5049C152.197 22.7137 152.06 23.1025 151.995 23.3689C151.93 23.6281 151.88 24.1393 151.88 24.4993C151.88 24.8593 151.93 25.3705 151.995 25.6297C152.06 25.8961 152.182 26.2561 152.276 26.4361C152.369 26.6161 152.607 26.9329 152.801 27.1345C152.996 27.3433 153.313 27.5881 153.5 27.6817C153.694 27.7825 154.04 27.9193 154.277 27.9841C154.544 28.0633 154.983 28.1065 155.494 28.1065C155.926 28.1065 156.538 28.0705 156.841 28.0273C157.15 27.9841 157.445 27.9193 157.489 27.8905C157.553 27.8545 157.589 26.9257 157.611 24.7009L157.633 21.5545C156.855 21.1585 156.423 20.9929 156.164 20.9281C155.912 20.8633 155.48 20.8129 155.199 20.8201C154.925 20.8201 154.508 20.8777 154.277 20.9353C154.04 21.0001 153.68 21.1441 153.471 21.2593ZM134.492 18.5449C134.938 18.5665 135.507 18.6385 135.766 18.7033C136.018 18.7681 136.436 18.9193 136.688 19.0417C136.947 19.1569 137.365 19.4089 137.617 19.6033C137.876 19.7977 138.236 20.1577 138.423 20.4025C138.61 20.6473 138.877 21.0937 139.021 21.3889C139.165 21.6841 139.352 22.2025 139.438 22.5409C139.525 22.8793 139.625 23.5633 139.705 24.9601H131.165L131.216 25.2481C131.237 25.4065 131.331 25.7449 131.403 25.9969C131.482 26.2489 131.684 26.6449 131.842 26.8681C132.001 27.0913 132.238 27.3577 132.361 27.4513C132.49 27.5449 132.749 27.7033 132.944 27.8041C133.131 27.8977 133.462 28.0201 133.678 28.0777C133.894 28.1353 134.47 28.1857 134.989 28.1857C135.5 28.1857 136.234 28.1353 136.616 28.0705C136.997 28.0057 137.537 27.8761 137.811 27.7897C138.085 27.7033 138.445 27.5665 138.603 27.4873C138.761 27.4081 138.927 27.3361 138.97 27.3361C139.021 27.3361 139.049 27.7753 139.049 29.6401L138.625 29.8345C138.387 29.9425 137.897 30.1153 137.523 30.2233C137.149 30.3241 136.465 30.4537 135.997 30.5041C135.356 30.5689 134.924 30.5689 134.254 30.5041C133.765 30.4537 133.052 30.3241 132.67 30.2161C132.289 30.1081 131.734 29.8921 131.446 29.7337C131.151 29.5753 130.654 29.2081 130.337 28.9129C130.013 28.6177 129.61 28.1353 129.423 27.8401C129.236 27.5449 129.005 27.0409 128.897 26.7241C128.789 26.4073 128.66 25.8529 128.609 25.5001C128.552 25.1041 128.537 24.5497 128.566 24.1177C128.588 23.7145 128.681 23.1097 128.768 22.7713C128.854 22.4329 129.063 21.8785 129.229 21.5401C129.394 21.2017 129.704 20.7193 129.905 20.4673C130.114 20.2153 130.525 19.8265 130.82 19.6033C131.115 19.3801 131.612 19.0993 131.921 18.9697C132.297 18.821 132.685 18.7054 133.081 18.6241C133.477 18.5521 133.952 18.5233 134.492 18.5449ZM132.8 21.2953C132.569 21.4321 132.245 21.6985 132.073 21.8857C131.907 22.0801 131.684 22.3969 131.583 22.5985C131.482 22.8001 131.396 22.9945 131.396 23.0377C131.396 23.0881 132.368 23.1169 134.161 23.1169H136.925C136.846 22.5481 136.774 22.2673 136.717 22.1161C136.652 21.9721 136.465 21.6985 136.299 21.5185C136.097 21.2953 135.853 21.1369 135.572 21.0289C135.334 20.9497 134.902 20.8633 134.607 20.8417C134.261 20.8273 133.909 20.8561 133.635 20.9281C133.405 20.9929 133.03 21.1585 132.8 21.2953ZM169.721 18.7393H172.285L172.277 22.5985C172.277 26.2345 172.285 26.4865 172.429 26.9545C172.522 27.2425 172.695 27.5809 172.839 27.7537C172.976 27.9121 173.264 28.1281 173.48 28.2289C173.689 28.3297 174.092 28.4449 174.365 28.4809C174.661 28.5241 175.078 28.5241 175.373 28.4809C175.647 28.4449 176.05 28.3297 176.259 28.2289C176.475 28.1281 176.763 27.9121 176.9 27.7537C177.044 27.5809 177.224 27.2425 177.31 26.9545C177.454 26.4865 177.461 26.2345 177.461 18.7393H179.989L179.974 22.9081C179.967 26.8537 179.96 27.0913 179.816 27.5305C179.729 27.7825 179.549 28.1641 179.413 28.3729C179.276 28.5889 179.038 28.8841 178.873 29.0425C178.714 29.2009 178.369 29.4529 178.117 29.6041C177.865 29.7553 177.375 29.9641 177.037 30.0721C176.648 30.1945 176.129 30.2881 175.647 30.3241C175.215 30.3457 174.524 30.3457 174.099 30.3169C173.617 30.2881 173.091 30.1945 172.709 30.0721C172.333 29.9504 171.969 29.7937 171.622 29.6041C171.37 29.4529 171.032 29.2009 170.866 29.0425C170.708 28.8841 170.463 28.5889 170.326 28.3729C170.197 28.1641 170.017 27.7825 169.93 27.5305C169.779 27.0985 169.772 26.8321 169.75 22.9081L169.721 18.7393Z" fill="var(--fill-0, #1F447E)"/>
<path id="Vector_9" d="M8.51493 27.7608V30.3312H3.71973V32.0232H8.51493V37.164H10.3653V32.0232H15.1605V30.3312H10.3653V25.1904H8.51493V27.7608Z" fill="var(--fill-0, #C72035)"/>
<path id="Vector_10" d="M28.6097 27.7608V30.3312H23.8145V31.944H28.6097V37.164H30.4601V31.944H35.2553V30.3312H30.4601V25.1904H28.6097V27.7608Z" fill="var(--fill-0, #1F447E)"/>
<path id="Vector_11" d="M18.716 34.2911V36.0911H15.4688V37.5527H18.716V41.1599H20.336V37.5527H23.5832V36.0911H20.336V32.4839H18.716V34.2911Z" fill="var(--fill-0, #5B6591)"/>
</g>
</svg>
