<svg width="240" height="240" viewBox="0 0 240 240" fill="none" xmlns="http://www.w3.org/2000/svg">
<g clip-path="url(#clip0_235_15975)">
<circle cx="120" cy="120" r="120" fill="white"/>
<path d="M101.068 42.8066C143.701 32.351 186.738 58.4356 197.193 101.068C207.649 143.701 181.564 186.738 138.932 197.193C96.2988 207.649 53.2625 181.564 42.8066 138.932C32.351 96.2988 58.4356 53.2625 101.068 42.8066Z" fill="#E2EAF0" stroke="#E2EAF0"/>
<path d="M69.4492 69.4324C97.3717 41.5099 142.644 41.5099 170.566 69.4324C198.489 97.3549 198.489 142.627 170.566 170.55C142.644 198.472 97.3717 198.472 69.4492 170.55C41.5267 142.627 41.5267 97.3549 69.4492 69.4324Z" fill="url(#paint0_radial_235_15975)"/>
<path d="M69.4492 69.4324C97.3717 41.5099 142.644 41.5099 170.566 69.4324C198.489 97.3549 198.489 142.627 170.566 170.55C142.644 198.472 97.3717 198.472 69.4492 170.55C41.5267 142.627 41.5267 97.3549 69.4492 69.4324Z" stroke="#CED8E0" style="mix-blend-mode:multiply"/>
<path d="M152.919 176.984C165.454 169.747 175.252 158.578 180.794 145.207C186.336 131.836 187.314 117.01 183.575 103.027C179.836 89.0445 171.589 76.6853 160.113 67.8652C148.637 59.045 134.572 54.2564 120.097 54.2415L120.03 120.019L152.919 176.984Z" fill="url(#paint1_radial_235_15975)"/>
<path d="M119.999 122.322C121.292 122.322 122.346 121.268 122.346 119.975V67.5217C122.346 66.2284 121.292 65.175 119.999 65.175C118.706 65.175 117.652 66.2284 117.652 67.5217V119.975C117.652 121.268 118.706 122.322 119.999 122.322Z" fill="#2E3841"/>
<path d="M140.16 156.935C140.56 156.935 140.96 156.829 141.334 156.615C142.454 155.962 142.827 154.535 142.174 153.415L122.014 118.802C121.36 117.682 119.934 117.309 118.814 117.962C117.694 118.615 117.32 120.042 117.974 121.162L138.134 155.775C138.574 156.522 139.347 156.935 140.16 156.935Z" fill="#2E3841"/>
<path d="M114.68 119.989C114.68 122.937 117.065 125.322 120.013 125.322C122.961 125.322 125.346 122.937 125.346 119.989C125.346 117.04 122.961 114.655 120.013 114.655C117.065 114.655 114.68 117.04 114.68 119.989Z" fill="#6D777F"/>
<path d="M120.001 61.1087C120.641 61.1087 121.175 60.5887 121.175 59.9353V52.802C121.175 52.162 120.655 51.6287 120.001 51.6287C119.348 51.6287 118.828 52.1487 118.828 52.802V59.9353C118.828 60.5753 119.348 61.1087 120.001 61.1087Z" fill="#6D777F"/>
<path d="M150.029 69.1618C150.429 69.1618 150.829 68.9485 151.042 68.5751L154.602 62.4018C154.922 61.8418 154.735 61.1218 154.175 60.8018C153.615 60.4818 152.895 60.6685 152.575 61.2285L149.015 67.4018C148.695 67.9618 148.882 68.6818 149.442 69.0018C149.629 69.1085 149.829 69.1618 150.029 69.1618Z" fill="#6D777F"/>
<path d="M172.001 91.1354C172.201 91.1354 172.401 91.0821 172.588 90.9754L178.761 87.4154C179.321 87.0954 179.508 86.3754 179.188 85.8154C178.868 85.2554 178.148 85.0687 177.588 85.3887L171.415 88.9487C170.855 89.2687 170.668 89.9887 170.988 90.5487C171.201 90.9221 171.601 91.1354 172.001 91.1354Z" fill="#6D777F"/>
<path d="M180.041 121.148H187.174C187.814 121.148 188.347 120.628 188.347 119.975C188.347 119.322 187.827 118.802 187.174 118.802H180.041C179.401 118.802 178.867 119.322 178.867 119.975C178.867 120.628 179.387 121.148 180.041 121.148Z" fill="#6D777F"/>
<path d="M178.175 154.736C178.575 154.736 178.975 154.522 179.188 154.149C179.508 153.589 179.321 152.869 178.761 152.549L172.588 148.989C172.028 148.669 171.308 148.855 170.988 149.415C170.668 149.975 170.855 150.695 171.415 151.015L177.588 154.575C177.775 154.682 177.975 154.736 178.175 154.736Z" fill="#6D777F"/>
<path d="M153.589 179.322C153.789 179.322 153.989 179.269 154.175 179.162C154.735 178.842 154.922 178.122 154.602 177.562L151.042 171.389C150.722 170.829 150.002 170.642 149.442 170.962C148.882 171.282 148.695 172.002 149.015 172.562L152.575 178.735C152.789 179.109 153.189 179.322 153.589 179.322Z" fill="#6D777F"/>
<path d="M120.001 188.322C120.641 188.322 121.175 187.802 121.175 187.149V180.015C121.175 179.362 120.655 178.842 120.001 178.842C119.348 178.842 118.828 179.362 118.828 180.015V187.149C118.828 187.802 119.348 188.322 120.001 188.322Z" fill="#6D777F"/>
<path d="M86.4155 179.322C86.8155 179.322 87.2155 179.109 87.4288 178.736L90.9888 172.562C91.3088 172.002 91.1222 171.282 90.5622 170.962C90.0022 170.642 89.2822 170.829 88.9622 171.389L85.4022 177.562C85.0822 178.122 85.2688 178.842 85.8288 179.162C86.0155 179.269 86.2155 179.322 86.4155 179.322Z" fill="#6D777F"/>
<path d="M61.8432 154.735C62.0432 154.735 62.2432 154.682 62.4299 154.575L68.6032 151.015C69.1632 150.695 69.3499 149.975 69.0299 149.415C68.7099 148.855 67.9899 148.669 67.4299 148.989L61.2566 152.549C60.6966 152.869 60.5099 153.589 60.8299 154.149C61.0432 154.522 61.4432 154.735 61.8432 154.735Z" fill="#6D777F"/>
<path d="M52.8413 121.149H59.9746C60.628 121.149 61.148 120.629 61.148 119.975C61.148 119.322 60.628 118.802 59.9746 118.802H52.8413C52.188 118.802 51.668 119.322 51.668 119.975C51.668 120.629 52.188 121.149 52.8413 121.149Z" fill="#6D777F"/>
<path d="M68.0166 91.1354C68.4166 91.1354 68.8166 90.9221 69.0299 90.5487C69.3499 89.9887 69.1632 89.2687 68.6032 88.9487L62.4299 85.3887C61.8699 85.0687 61.1499 85.2554 60.8299 85.8154C60.5099 86.3754 60.6966 87.0954 61.2566 87.4154L67.4299 90.9754C67.6166 91.0821 67.8166 91.1354 68.0166 91.1354Z" fill="#6D777F"/>
<path d="M89.9872 69.1618C90.1872 69.1618 90.3872 69.1085 90.5739 69.0018C91.1339 68.6818 91.3205 67.9618 91.0005 67.4018L87.4405 61.2285C87.1205 60.6685 86.4005 60.4818 85.8405 60.8018C85.2805 61.1218 85.0939 61.8418 85.4139 62.4018L88.9739 68.5751C89.1872 68.9485 89.5872 69.1618 89.9872 69.1618Z" fill="#6D777F"/>
</g>
<defs>
<radialGradient id="paint0_radial_235_15975" cx="0" cy="0" r="1" gradientUnits="userSpaceOnUse" gradientTransform="translate(120.033 48.0217) rotate(90) scale(161.5)">
<stop offset="0.196508" stop-color="white"/>
<stop offset="1" stop-color="#E2EAF0"/>
</radialGradient>
<radialGradient id="paint1_radial_235_15975" cx="0" cy="0" r="1" gradientUnits="userSpaceOnUse" gradientTransform="translate(120.03 120.019) rotate(90) scale(65.7778)">
<stop stop-color="#8CC6F4" stop-opacity="0"/>
<stop offset="1" stop-color="#0E8FEA" stop-opacity="0.5"/>
</radialGradient>
<clipPath id="clip0_235_15975">
<rect width="240" height="240" rx="120" fill="white"/>
</clipPath>
</defs>
</svg>
