<svg width="628" height="471" viewBox="0 0 628 471" fill="none" xmlns="http://www.w3.org/2000/svg">
<rect width="628" height="471" fill="white"/>
<mask id="mask0_218_10541" style="mask-type:alpha" maskUnits="userSpaceOnUse" x="0" y="38" width="628" height="433">
<ellipse cx="314" cy="254.5" rx="314" ry="216.5" fill="url(#paint0_radial_218_10541)"/>
</mask>
<g mask="url(#mask0_218_10541)">
<path d="M-312.213 241.718L-312.588 242.368L302.481 597.478L302.856 596.828L-312.213 241.718Z" fill="#EFF2F7"/>
<path d="M-300.174 234.762L-300.549 235.411L314.52 590.521L314.895 589.872L-300.174 234.762Z" fill="#EFF2F7"/>
<path d="M-288.146 227.818L-288.521 228.468L326.547 583.578L326.922 582.928L-288.146 227.818Z" fill="#EFF2F7"/>
<path d="M-276.111 220.875L-276.486 221.524L338.582 576.634L338.957 575.985L-276.111 220.875Z" fill="#EFF2F7"/>
<path d="M-264.076 213.927L-264.451 214.576L350.617 569.686L350.992 569.037L-264.076 213.927Z" fill="#EFF2F7"/>
<path d="M-252.045 206.975L-252.42 207.624L362.649 562.734L363.024 562.085L-252.045 206.975Z" fill="#EFF2F7"/>
<path d="M-240.02 200.031L-240.395 200.681L374.674 555.791L375.049 555.141L-240.02 200.031Z" fill="#EFF2F7"/>
<path d="M-227.982 193.078L-228.357 193.728L386.72 548.843L387.095 548.193L-227.982 193.078Z" fill="#EFF2F7"/>
<path d="M-215.947 186.14L-216.322 186.789L398.746 541.899L399.121 541.25L-215.947 186.14Z" fill="#EFF2F7"/>
<path d="M-203.916 179.188L-204.291 179.837L410.778 534.947L411.153 534.298L-203.916 179.188Z" fill="#EFF2F7"/>
<path d="M-191.891 172.245L-192.266 172.894L422.803 528.004L423.178 527.355L-191.891 172.245Z" fill="#EFF2F7"/>
<path d="M-179.846 165.296L-180.221 165.946L434.856 521.061L435.231 520.411L-179.846 165.296Z" fill="#EFF2F7"/>
<path d="M-167.82 158.353L-168.195 159.002L446.873 514.112L447.248 513.463L-167.82 158.353Z" fill="#EFF2F7"/>
<path d="M-155.789 151.401L-156.164 152.051L458.905 507.161L459.28 506.511L-155.789 151.401Z" fill="#EFF2F7"/>
<path d="M-143.754 144.453L-144.129 145.102L470.94 500.212L471.315 499.563L-143.754 144.453Z" fill="#EFF2F7"/>
<path d="M-131.717 137.509L-132.092 138.159L482.985 493.274L483.36 492.624L-131.717 137.509Z" fill="#EFF2F7"/>
<path d="M-119.691 130.566L-120.066 131.216L495.002 486.326L495.377 485.676L-119.691 130.566Z" fill="#EFF2F7"/>
<path d="M-107.66 123.604L-108.035 124.254L507.033 479.364L507.408 478.714L-107.66 123.604Z" fill="#EFF2F7"/>
<path d="M-95.625 116.666L-96 117.315L519.069 472.425L519.444 471.776L-95.625 116.666Z" fill="#EFF2F7"/>
<path d="M-83.5898 109.723L-83.9648 110.372L531.104 465.482L531.479 464.833L-83.5898 109.723Z" fill="#EFF2F7"/>
<path d="M-71.5625 102.769L-71.9375 103.419L543.131 458.529L543.506 457.879L-71.5625 102.769Z" fill="#EFF2F7"/>
<path d="M-59.5234 95.8224L-59.8984 96.4719L555.17 451.582L555.545 450.932L-59.5234 95.8224Z" fill="#EFF2F7"/>
<path d="M-47.498 88.8793L-47.873 89.5288L567.195 444.639L567.57 443.989L-47.498 88.8793Z" fill="#EFF2F7"/>
<path d="M-35.4609 81.9359L-35.8359 82.5854L579.233 437.695L579.608 437.046L-35.4609 81.9359Z" fill="#EFF2F7"/>
<path d="M-23.4258 74.9877L-23.8008 75.6372L591.268 430.747L591.643 430.098L-23.4258 74.9877Z" fill="#EFF2F7"/>
<path d="M-11.3965 68.0358L-11.7715 68.6853L603.297 423.795L603.672 423.146L-11.3965 68.0358Z" fill="#EFF2F7"/>
<path d="M0.630859 61.0924L0.255859 61.7419L615.324 416.852L615.699 416.202L0.630859 61.0924Z" fill="#EFF2F7"/>
<path d="M12.666 54.1391L12.291 54.7886L627.36 409.899L627.735 409.249L12.666 54.1391Z" fill="#EFF2F7"/>
<path d="M24.7012 47.2008L24.3262 47.8503L639.395 402.96L639.77 402.311L24.7012 47.2008Z" fill="#EFF2F7"/>
<path d="M36.7324 40.2489L36.3574 40.8984L651.426 396.008L651.801 395.359L36.7324 40.2489Z" fill="#EFF2F7"/>
<path d="M48.7578 33.2955L48.3828 33.9451L663.451 389.055L663.826 388.406L48.7578 33.2955Z" fill="#EFF2F7"/>
<path d="M60.8027 26.3573L60.4277 27.0068L675.496 382.117L675.871 381.467L60.8027 26.3573Z" fill="#EFF2F7"/>
<path d="M72.8301 19.414L72.4551 20.0635L687.524 375.173L687.899 374.524L72.8301 19.414Z" fill="#EFF2F7"/>
<path d="M84.8613 12.452L84.4863 13.1016L699.555 368.212L699.93 367.562L84.8613 12.452Z" fill="#EFF2F7"/>
<path d="M96.8867 5.50868L96.5117 6.1582L711.58 361.268L711.955 360.619L96.8867 5.50868Z" fill="#EFF2F7"/>
<path d="M108.932 -1.42955L108.557 -0.780029L723.625 354.33L724 353.68L108.932 -1.42955Z" fill="#EFF2F7"/>
<path d="M120.957 -8.37266L120.582 -7.72314L735.651 347.387L736.026 346.737L120.957 -8.37266Z" fill="#EFF2F7"/>
<path d="M132.988 -15.3348L132.613 -14.6853L747.682 340.425L748.057 339.775L132.988 -15.3348Z" fill="#EFF2F7"/>
<path d="M145.023 -22.2731L144.648 -21.6235L759.717 333.486L760.092 332.837L145.023 -22.2731Z" fill="#EFF2F7"/>
<path d="M157.061 -29.2164L156.686 -28.5669L771.754 326.543L772.129 325.894L157.061 -29.2164Z" fill="#EFF2F7"/>
<path d="M169.086 -36.1695L168.711 -35.52L783.779 319.59L784.154 318.94L169.086 -36.1695Z" fill="#EFF2F7"/>
<path d="M181.125 -43.1166L180.75 -42.467L795.819 312.643L796.194 311.993L181.125 -43.1166Z" fill="#EFF2F7"/>
<path d="M193.152 -50.0599L192.777 -49.4104L807.846 305.7L808.221 305.05L193.152 -50.0599Z" fill="#EFF2F7"/>
<path d="M205.188 -57.013L204.812 -56.3635L819.89 298.751L820.265 298.102L205.188 -57.013Z" fill="#EFF2F7"/>
<path d="M217.215 -63.9564L216.84 -63.3069L831.908 291.803L832.283 291.154L217.215 -63.9564Z" fill="#EFF2F7"/>
<path d="M229.254 -70.9034L228.879 -70.2539L843.947 284.856L844.322 284.207L229.254 -70.9034Z" fill="#EFF2F7"/>
<path d="M241.279 -77.8566L240.904 -77.207L855.973 277.903L856.348 277.253L241.279 -77.8566Z" fill="#EFF2F7"/>
<path d="M253.316 -84.7999L252.941 -84.1504L868.019 270.965L868.394 270.315L253.316 -84.7999Z" fill="#EFF2F7"/>
<path d="M265.352 -91.7381L264.977 -91.0886L880.045 264.021L880.42 263.372L265.352 -91.7381Z" fill="#EFF2F7"/>
<path d="M277.383 -98.7001L277.008 -98.0505L892.076 257.059L892.451 256.41L277.383 -98.7001Z" fill="#EFF2F7"/>
<path d="M289.408 -105.643L289.033 -104.994L904.102 250.116L904.477 249.467L289.408 -105.643Z" fill="#EFF2F7"/>
<path d="M301.443 -112.582L301.068 -111.932L916.137 243.178L916.512 242.528L301.443 -112.582Z" fill="#EFF2F7"/>
<path d="M313.479 -119.525L313.104 -118.875L928.172 236.234L928.547 235.585L313.479 -119.525Z" fill="#EFF2F7"/>
<path d="M325.51 -126.487L325.135 -125.837L940.203 229.273L940.578 228.623L325.51 -126.487Z" fill="#EFF2F7"/>
<path d="M949.886 222.413L291.404 602.128L291.779 602.778L950.261 223.063L949.886 222.413Z" fill="#EFF2F7"/>
<path d="M937.857 215.521L279.375 595.236L279.75 595.886L938.232 216.17L937.857 215.521Z" fill="#EFF2F7"/>
<path d="M925.816 208.524L267.334 588.24L267.709 588.889L926.191 209.174L925.816 208.524Z" fill="#EFF2F7"/>
<path d="M913.783 201.583L255.301 581.299L255.675 581.948L914.158 202.233L913.783 201.583Z" fill="#EFF2F7"/>
<path d="M901.754 194.641L243.271 574.356L243.646 575.006L902.128 195.29L901.754 194.641Z" fill="#EFF2F7"/>
<path d="M889.732 187.69L231.25 567.405L231.625 568.055L890.107 188.339L889.732 187.69Z" fill="#EFF2F7"/>
<path d="M877.689 180.743L219.207 560.459L219.582 561.108L878.064 181.393L877.689 180.743Z" fill="#EFF2F7"/>
<path d="M865.656 173.792L207.174 553.508L207.548 554.157L866.031 174.442L865.656 173.792Z" fill="#EFF2F7"/>
<path d="M853.629 166.89L195.146 546.605L195.521 547.255L854.003 167.54L853.629 166.89Z" fill="#EFF2F7"/>
<path d="M841.595 159.899L183.113 539.614L183.488 540.264L841.97 160.548L841.595 159.899Z" fill="#EFF2F7"/>
<path d="M829.552 152.953L171.07 532.668L171.445 533.318L829.927 153.602L829.552 152.953Z" fill="#EFF2F7"/>
<path d="M817.525 146.05L159.043 525.765L159.418 526.415L817.9 146.7L817.525 146.05Z" fill="#EFF2F7"/>
<path d="M805.502 139.069L147.02 518.784L147.394 519.434L805.876 139.719L805.502 139.069Z" fill="#EFF2F7"/>
<path d="M793.468 132.118L134.986 511.833L135.361 512.483L793.843 132.767L793.468 132.118Z" fill="#EFF2F7"/>
<path d="M781.431 125.18L122.949 504.896L123.324 505.545L781.806 125.83L781.431 125.18Z" fill="#EFF2F7"/>
<path d="M769.398 118.229L110.916 497.944L111.291 498.594L769.773 118.879L769.398 118.229Z" fill="#EFF2F7"/>
<path d="M757.365 111.278L98.8828 490.993L99.2575 491.643L757.74 111.928L757.365 111.278Z" fill="#EFF2F7"/>
<path d="M745.332 104.327L86.8496 484.042L87.2243 484.692L745.706 104.976L745.332 104.327Z" fill="#EFF2F7"/>
<path d="M733.295 97.3892L74.8125 477.104L75.1872 477.754L733.669 98.0389L733.295 97.3892Z" fill="#EFF2F7"/>
<path d="M721.271 90.4381L62.7891 470.153L63.1637 470.803L721.646 91.0878L721.271 90.4381Z" fill="#EFF2F7"/>
<path d="M709.238 83.4971L50.7559 463.212L51.1305 463.862L709.613 84.1469L709.238 83.4971Z" fill="#EFF2F7"/>
<path d="M697.209 76.5545L38.7266 456.27L39.1012 456.919L697.583 77.2042L697.209 76.5545Z" fill="#EFF2F7"/>
<path d="M685.168 69.6085L26.6855 449.324L27.0602 449.973L685.542 70.2582L685.168 69.6085Z" fill="#EFF2F7"/>
<path d="M673.134 62.6573L14.6523 442.373L15.027 443.022L673.509 63.307L673.134 62.6573Z" fill="#EFF2F7"/>
<path d="M661.101 55.7061L2.61914 435.421L2.9938 436.071L661.476 56.3558L661.101 55.7061Z" fill="#EFF2F7"/>
<path d="M649.072 48.7637L-9.41016 428.479L-9.0355 429.129L649.447 49.4135L649.072 48.7637Z" fill="#EFF2F7"/>
<path d="M637.041 41.8175L-21.4414 421.533L-21.0667 422.182L637.415 42.4672L637.041 41.8175Z" fill="#EFF2F7"/>
<path d="M625.008 34.8663L-33.4746 414.582L-33.0999 415.231L625.382 35.516L625.008 34.8663Z" fill="#EFF2F7"/>
<path d="M612.978 27.9339L-45.5039 407.649L-45.1292 408.299L613.353 28.5836L612.978 27.9339Z" fill="#EFF2F7"/>
<path d="M600.945 21.0028L-57.5371 400.718L-57.1624 401.368L601.32 21.6525L600.945 21.0028Z" fill="#EFF2F7"/>
<path d="M588.904 14.0364L-69.5781 393.752L-69.2035 394.401L589.279 14.6862L588.904 14.0364Z" fill="#EFF2F7"/>
<path d="M576.875 7.09407L-81.6074 386.809L-81.2328 387.459L577.249 7.74378L576.875 7.09407Z" fill="#EFF2F7"/>
<path d="M564.851 0.142895L-93.6309 379.858L-93.2562 380.508L565.226 0.792611L564.851 0.142895Z" fill="#EFF2F7"/>
<path d="M552.818 -6.80828L-105.664 372.907L-105.289 373.557L553.193 -6.15856L552.818 -6.80828Z" fill="#EFF2F7"/>
<path d="M540.777 -13.7543L-117.705 365.961L-117.33 366.611L541.152 -13.1046L540.777 -13.7543Z" fill="#EFF2F7"/>
<path d="M528.748 -20.6969L-129.734 359.018L-129.36 359.668L529.122 -20.0472L528.748 -20.6969Z" fill="#EFF2F7"/>
<path d="M516.715 -27.6481L-141.768 352.067L-141.393 352.717L517.089 -26.9984L516.715 -27.6481Z" fill="#EFF2F7"/>
<path d="M504.681 -34.5893L-153.801 345.126L-153.426 345.776L505.056 -33.9396L504.681 -34.5893Z" fill="#EFF2F7"/>
<path d="M492.644 -41.5268L-165.838 338.188L-165.463 338.838L493.019 -40.8771L492.644 -41.5268Z" fill="#EFF2F7"/>
<path d="M480.611 -48.4679L-177.871 331.247L-177.496 331.897L480.986 -47.8182L480.611 -48.4679Z" fill="#EFF2F7"/>
<path d="M468.588 -55.4291L-189.895 324.286L-189.52 324.936L468.962 -54.7794L468.588 -55.4291Z" fill="#EFF2F7"/>
<path d="M456.56 -62.3715L-201.922 317.344L-201.547 317.993L456.935 -61.7218L456.56 -62.3715Z" fill="#EFF2F7"/>
<path d="M444.517 -69.3178L-213.965 310.397L-213.59 311.047L444.892 -68.6681L444.517 -69.3178Z" fill="#EFF2F7"/>
<path d="M432.484 -76.2687L-225.998 303.447L-225.623 304.096L432.859 -75.619L432.484 -76.2687Z" fill="#EFF2F7"/>
<path d="M420.451 -83.2199L-238.031 296.495L-237.657 297.145L420.826 -82.5702L420.451 -83.2199Z" fill="#EFF2F7"/>
<path d="M408.424 -90.1525L-250.059 289.563L-249.684 290.212L408.798 -89.5028L408.424 -90.1525Z" fill="#EFF2F7"/>
<path d="M396.392 -97.0986L-262.09 282.617L-261.715 283.266L396.767 -96.4488L396.392 -97.0986Z" fill="#EFF2F7"/>
<path d="M384.357 -104.05L-274.125 275.666L-273.75 276.315L384.732 -103.4L384.357 -104.05Z" fill="#EFF2F7"/>
<path d="M372.33 -110.992L-286.152 268.723L-285.778 269.373L372.704 -110.342L372.33 -110.992Z" fill="#EFF2F7"/>
<path d="M360.297 -117.943L-298.186 261.772L-297.811 262.422L360.671 -117.294L360.297 -117.943Z" fill="#EFF2F7"/>
<path d="M348.256 -124.89L-310.227 254.826L-309.852 255.475L348.63 -124.24L348.256 -124.89Z" fill="#EFF2F7"/>
<path d="M336.226 -131.832L-322.256 247.883L-321.881 248.533L336.601 -131.182L336.226 -131.832Z" fill="#EFF2F7"/>
</g>
<path d="M309.181 362.07C283.121 362.07 257.051 356.34 237.211 344.89C217.901 333.74 207.271 318.9 207.271 303.09C207.271 287.28 217.901 272.44 237.211 261.29C276.901 238.38 341.471 238.38 381.161 261.29C400.461 272.44 411.101 287.28 411.101 303.09C411.101 318.9 400.471 333.74 381.161 344.89C361.321 356.35 335.251 362.07 309.191 362.07H309.181ZM309.181 244.94C283.271 244.94 257.361 250.63 237.631 262.02C218.601 273.01 208.121 287.59 208.121 303.08C208.121 318.57 218.601 333.16 237.631 344.14C277.081 366.92 341.281 366.92 380.731 344.14C399.761 333.15 410.241 318.57 410.241 303.08C410.241 287.59 399.761 273 380.731 262.02C361.001 250.63 335.091 244.94 309.181 244.94Z" fill="#BCCBD2" fill-opacity="0.6"/>
<path d="M421.562 361.15C421.492 361.15 421.412 361.13 421.352 361.09L386.882 341.19C386.682 341.07 386.612 340.81 386.722 340.61C386.842 340.41 387.102 340.34 387.302 340.45L421.772 360.35C421.972 360.47 422.042 360.73 421.932 360.93C421.852 361.07 421.712 361.14 421.562 361.14V361.15Z" fill="#BCCBD2" fill-opacity="0.6"/>
<path d="M168.831 382.1C168.681 382.1 168.541 382.02 168.461 381.89C168.341 381.69 168.411 381.43 168.621 381.31L234.861 343.06C235.061 342.94 235.321 343.01 235.441 343.22C235.561 343.42 235.491 343.68 235.281 343.8L169.041 382.05C168.971 382.09 168.901 382.11 168.831 382.11V382.1Z" fill="#BCCBD2" fill-opacity="0.6"/>
<path d="M252.782 375.311C252.632 375.311 252.492 375.231 252.412 375.101C252.292 374.901 252.362 374.641 252.572 374.521L279.642 358.891C279.842 358.771 280.102 358.841 280.222 359.051C280.342 359.251 280.272 359.511 280.062 359.631L252.992 375.261C252.922 375.301 252.852 375.321 252.782 375.321V375.311Z" fill="#BCCBD2" fill-opacity="0.6"/>
<path d="M365.432 254.691C365.282 254.691 365.142 254.611 365.062 254.481C364.942 254.281 365.012 254.021 365.222 253.901L409.432 228.371C409.632 228.251 409.892 228.321 410.012 228.531C410.132 228.731 410.062 228.991 409.852 229.111L365.642 254.641C365.572 254.681 365.502 254.701 365.432 254.701V254.691Z" fill="#BCCBD2" fill-opacity="0.6"/>
<path d="M293.771 245.541C293.701 245.541 293.631 245.521 293.561 245.481L228.511 207.921C228.311 207.801 228.241 207.541 228.351 207.341C228.471 207.141 228.731 207.071 228.931 207.181L293.981 244.741C294.181 244.861 294.251 245.121 294.141 245.321C294.061 245.461 293.921 245.531 293.771 245.531V245.541Z" fill="#BCCBD2" fill-opacity="0.6"/>
<path d="M192.872 326.541C192.722 326.541 192.582 326.461 192.502 326.331C192.382 326.131 192.452 325.871 192.662 325.751L209.962 315.761C210.162 315.641 210.422 315.711 210.542 315.921C210.662 316.121 210.592 316.381 210.382 316.501L193.082 326.491C193.012 326.531 192.942 326.551 192.872 326.551V326.541Z" fill="#BCCBD2" fill-opacity="0.6"/>
<path d="M277.362 236.071C277.212 236.071 277.072 235.991 276.992 235.861C276.872 235.661 276.942 235.401 277.152 235.281L337.122 200.661C337.322 200.541 337.582 200.611 337.702 200.821C337.822 201.021 337.752 201.281 337.542 201.401L277.572 236.021C277.502 236.061 277.432 236.081 277.362 236.081V236.071Z" fill="#BCCBD2" fill-opacity="0.6"/>
<path d="M385.351 242.95C385.281 242.95 385.201 242.931 385.141 242.89L349.171 222.121C349.041 222.041 348.961 221.901 348.961 221.75C348.961 221.6 349.041 221.461 349.171 221.381L421.121 179.841C421.321 179.721 421.581 179.791 421.701 180.001C421.821 180.201 421.751 180.461 421.541 180.581L350.221 221.75L385.561 242.151C385.761 242.271 385.831 242.531 385.721 242.731C385.641 242.871 385.501 242.941 385.351 242.941V242.95Z" fill="#BCCBD2" fill-opacity="0.6"/>
<path d="M214.072 282.86C214.002 282.86 213.922 282.84 213.862 282.8L144.882 242.97C144.682 242.85 144.612 242.59 144.722 242.39C144.842 242.19 145.102 242.12 145.302 242.23L214.282 282.06C214.482 282.18 214.552 282.44 214.442 282.64C214.362 282.78 214.222 282.85 214.072 282.85V282.86Z" fill="#BCCBD2" fill-opacity="0.6"/>
<path d="M433.072 396.01C432.992 396.01 432.922 395.99 432.852 395.95L360.692 354.04C360.482 353.92 360.402 353.64 360.532 353.43C360.652 353.22 360.922 353.14 361.142 353.27L433.302 395.18C433.512 395.3 433.592 395.58 433.462 395.79C433.382 395.93 433.232 396.01 433.072 396.01Z" fill="#BCCBD2" fill-opacity="0.6"/>
<path d="M193.411 324.941C194.531 325.111 195.201 325.781 194.901 326.431C194.601 327.081 193.451 327.461 192.331 327.291C191.211 327.121 190.541 326.451 190.841 325.801C191.141 325.151 192.291 324.771 193.411 324.941Z" fill="#BCCBD2" fill-opacity="0.6"/>
<path d="M169.642 380.5C170.762 380.67 171.432 381.34 171.132 381.99C170.832 382.64 169.682 383.02 168.562 382.85C167.442 382.68 166.772 382.01 167.072 381.36C167.372 380.71 168.522 380.33 169.642 380.5Z" fill="#BCCBD2" fill-opacity="0.6"/>
<path d="M253.321 373.711C254.441 373.881 255.111 374.551 254.811 375.201C254.511 375.851 253.361 376.231 252.241 376.061C251.121 375.891 250.451 375.221 250.751 374.571C251.051 373.921 252.201 373.541 253.321 373.711Z" fill="#BCCBD2" fill-opacity="0.6"/>
<path d="M422.103 359.591C423.223 359.761 423.893 360.431 423.593 361.081C423.293 361.731 422.143 362.111 421.023 361.941C419.903 361.771 419.233 361.101 419.533 360.451C419.833 359.801 420.983 359.421 422.103 359.591Z" fill="#BCCBD2" fill-opacity="0.6"/>
<path d="M410.181 227.571C411.301 227.741 411.971 228.411 411.671 229.061C411.371 229.711 410.221 230.091 409.101 229.921C407.981 229.751 407.311 229.081 407.611 228.431C407.911 227.781 409.061 227.401 410.181 227.571Z" fill="#BCCBD2" fill-opacity="0.6"/>
<path d="M421.911 179.041C423.031 179.211 423.701 179.881 423.401 180.531C423.101 181.181 421.951 181.561 420.831 181.391C419.711 181.221 419.041 180.551 419.341 179.901C419.641 179.251 420.791 178.871 421.911 179.041Z" fill="#BCCBD2" fill-opacity="0.6"/>
<path d="M338.001 199.721C339.121 199.891 339.791 200.561 339.491 201.211C339.191 201.861 338.041 202.241 336.921 202.071C335.801 201.901 335.131 201.231 335.431 200.581C335.731 199.931 336.881 199.551 338.001 199.721Z" fill="#BCCBD2" fill-opacity="0.6"/>
<path d="M229.722 206.651C230.842 206.821 231.512 207.491 231.212 208.141C230.912 208.791 229.762 209.171 228.642 209.001C227.522 208.831 226.852 208.161 227.152 207.511C227.452 206.861 228.602 206.481 229.722 206.651Z" fill="#BCCBD2" fill-opacity="0.6"/>
<path d="M145.642 241.44C146.762 241.61 147.432 242.28 147.132 242.93C146.832 243.58 145.682 243.96 144.562 243.79C143.442 243.62 142.772 242.95 143.072 242.3C143.372 241.65 144.522 241.27 145.642 241.44Z" fill="#BCCBD2" fill-opacity="0.6"/>
<ellipse cx="309" cy="303" rx="101" ry="58" fill="url(#paint1_radial_218_10541)"/>
<path d="M336.21 190.464V278.906C336.21 280.79 334.885 283.093 333.245 284.034L303.873 300.988C303.047 301.453 301.978 301.697 300.908 301.697C299.838 301.697 298.768 301.453 297.954 300.988L268.582 284.034C266.943 283.093 265.617 280.79 265.617 278.906V190.464H336.21Z" fill="#B9DCF8"/>
<path d="M300.908 190.464V301.697C299.838 301.697 298.768 301.453 297.954 300.988L268.582 284.034C266.943 283.093 265.617 280.79 265.617 278.906V190.464H300.908Z" fill="#8CC6F4"/>
<path d="M297.953 170.802L266.849 188.767C265.209 189.709 265.209 191.244 266.849 192.185L297.953 210.151C299.593 211.092 302.244 211.092 303.872 210.151L334.977 192.185C336.616 191.244 336.616 189.709 334.977 188.767L303.872 170.802C302.232 169.86 299.581 169.86 297.953 170.802Z" fill="#E2F1FC"/>
<path d="M305.547 216.814V292.419C305.547 293.686 306.431 294.198 307.524 293.57L307.861 293.36L331.349 279.791C331.896 279.477 332.384 278.93 332.756 278.314L330.593 276.86L306.152 214.872C305.791 215.488 305.559 216.186 305.559 216.825L305.547 216.814Z" fill="#00306F"/>
<path d="M333.319 201.162V200.779C333.319 199.523 332.435 199.011 331.342 199.639L331.156 199.744L307.528 213.395C306.982 213.709 306.493 214.255 306.133 214.872L330.482 277.023L332.749 278.314C333.098 277.697 333.33 277 333.319 276.383V201.151V201.162Z" fill="#004299"/>
<path d="M331.165 274.918C331.165 275.546 330.944 276.232 330.584 276.86C330.235 277.476 329.746 278.023 329.188 278.337L305.688 291.907L305.537 292V216.813C305.537 216.174 305.77 215.476 306.13 214.86C306.479 214.232 306.979 213.697 307.526 213.383L331.153 199.732V274.918H331.165Z" fill="#005FB8"/>
<path d="M296.28 216.814V292.419C296.28 293.686 295.396 294.198 294.303 293.57L293.966 293.361L270.477 279.791C269.931 279.477 269.442 278.93 269.07 278.314L271.233 276.861L295.675 214.872C296.035 215.488 296.268 216.186 296.268 216.826L296.28 216.814Z" fill="#00306F"/>
<path d="M268.506 201.162V200.779C268.506 199.523 269.39 199.011 270.494 199.639L270.68 199.744L294.308 213.395C294.855 213.709 295.343 214.255 295.703 214.872L271.355 277.023L269.087 278.314C268.738 277.697 268.506 277 268.517 276.383V201.151L268.506 201.162Z" fill="#004299"/>
<path d="M270.66 274.918C270.66 275.546 270.881 276.232 271.242 276.86C271.59 277.477 272.09 278.023 272.637 278.337L296.137 291.907L296.288 292V216.814C296.288 216.174 296.056 215.476 295.695 214.86C295.346 214.232 294.846 213.697 294.3 213.383L270.672 199.732V274.918H270.66Z" fill="#005FB8"/>
<path d="M286.844 235.267L288.518 234.29C288.856 234.092 289.135 233.616 289.135 233.22V224.662C289.135 224.197 288.972 223.674 288.704 223.208L281.367 227.453L286.844 235.255V235.267Z" fill="#B9DCF8"/>
<path d="M287.656 222.116L276.668 215.767C276.4 215.616 275.947 215.616 275.679 215.767L273.889 216.813L281.365 227.453L288.703 223.209C288.435 222.744 288.063 222.348 287.656 222.104V222.116Z" fill="#8CC6F4"/>
<path d="M274.932 216.918L285.804 223.197C286.618 223.662 287.281 224.814 287.281 225.744V234.302C287.281 235.244 286.618 235.616 285.804 235.151L274.932 228.872C274.118 228.407 273.455 227.255 273.455 226.325V217.767C273.455 216.825 274.118 216.453 274.932 216.918Z" fill="#E2F1FC"/>
<path d="M312.271 230.942L310.364 229.837C310.027 229.639 309.748 229.162 309.748 228.767V225.5C309.748 225.035 309.911 224.511 310.178 224.046L315.841 227.302L312.26 230.93L312.271 230.942Z" fill="#B9DCF8"/>
<path d="M311.216 222.965L325.1 214.93C325.368 214.779 325.821 214.779 326.089 214.93L328.112 216.104L315.833 227.314L310.17 224.058C310.437 223.593 310.809 223.197 311.216 222.953V222.965Z" fill="#8CC6F4"/>
<path d="M327.07 216.197L313.303 224.162C312.489 224.628 311.826 225.779 311.826 226.709V229.976C311.826 230.918 312.489 231.29 313.303 230.825L327.07 222.86C327.884 222.395 328.547 221.244 328.547 220.314V217.046C328.547 216.104 327.884 215.732 327.07 216.197Z" fill="#E2F1FC"/>
<path d="M312.271 246.104L310.364 244.999C310.027 244.802 309.748 244.325 309.748 243.93V240.662C309.748 240.197 309.911 239.674 310.178 239.209L315.841 242.465L312.26 246.092L312.271 246.104Z" fill="#B9DCF8"/>
<path d="M311.216 238.128L325.1 230.093C325.368 229.941 325.821 229.941 326.089 230.093L328.112 231.267L315.833 242.476L310.17 239.221C310.437 238.755 310.809 238.36 311.216 238.116V238.128Z" fill="#8CC6F4"/>
<path d="M327.07 231.372L313.303 239.337C312.489 239.802 311.826 240.953 311.826 241.883V245.151C311.826 246.093 312.489 246.476 313.303 246L327.07 238.034C327.884 237.569 328.547 236.418 328.547 235.488V232.22C328.547 231.279 327.884 230.906 327.07 231.372Z" fill="#E2F1FC"/>
<path d="M312.271 261.279L310.364 260.174C310.027 259.976 309.748 259.5 309.748 259.104V255.837C309.748 255.372 309.911 254.848 310.178 254.383L315.841 257.639L312.26 261.267L312.271 261.279Z" fill="#B9DCF8"/>
<path d="M311.216 253.29L325.1 245.255C325.368 245.093 325.821 245.104 326.089 245.255L328.112 246.43L315.833 257.639L310.17 254.383C310.437 253.918 310.809 253.523 311.216 253.279V253.29Z" fill="#8CC6F4"/>
<path d="M327.07 246.534L313.303 254.5C312.489 254.965 311.826 256.116 311.826 257.046V260.314C311.826 261.255 312.489 261.627 313.303 261.162L327.07 253.197C327.884 252.732 328.547 251.581 328.547 250.651V247.383C328.547 246.441 327.884 246.058 327.07 246.534Z" fill="#E2F1FC"/>
<path d="M312.271 276.441L310.364 275.337C310.027 275.139 309.748 274.662 309.748 274.267V270.999C309.748 270.534 309.911 270.011 310.178 269.546L315.841 272.802L312.26 276.43L312.271 276.441Z" fill="#B9DCF8"/>
<path d="M311.216 268.453L325.1 260.418C325.368 260.267 325.821 260.267 326.089 260.418L328.112 261.592L315.833 272.802L310.17 269.546C310.437 269.081 310.809 268.686 311.216 268.441V268.453Z" fill="#8CC6F4"/>
<path d="M327.07 261.697L313.303 269.662C312.489 270.127 311.826 271.278 311.826 272.209V275.476C311.826 276.418 312.489 276.79 313.303 276.325L327.07 268.36C327.884 267.895 328.547 266.744 328.547 265.813V262.546C328.547 261.604 327.884 261.232 327.07 261.697Z" fill="#E2F1FC"/>
<path d="M313.779 226.046L315.605 224.999C315.744 224.918 315.849 224.988 315.849 225.139V227.244C315.849 227.395 315.733 227.592 315.605 227.674L313.779 228.72C313.64 228.802 313.535 228.732 313.535 228.581V226.476C313.535 226.313 313.651 226.127 313.779 226.046Z" fill="#2ED1C1"/>
<path d="M313.779 241.209L315.605 240.163C315.744 240.081 315.849 240.151 315.849 240.302V242.407C315.849 242.57 315.733 242.756 315.605 242.837L313.779 243.883C313.64 243.965 313.535 243.895 313.535 243.744V241.639C313.535 241.488 313.651 241.29 313.779 241.209Z" fill="#2ED1C1"/>
<path d="M313.779 256.383L315.605 255.337C315.744 255.255 315.849 255.325 315.849 255.476V257.581C315.849 257.732 315.733 257.93 315.605 258.011L313.779 259.058C313.64 259.139 313.535 259.069 313.535 258.918V256.814C313.535 256.651 313.651 256.465 313.779 256.383Z" fill="#2ED1C1"/>
<path d="M313.779 271.546L315.605 270.499C315.744 270.418 315.849 270.488 315.849 270.639V272.744C315.849 272.906 315.733 273.093 315.605 273.174L313.779 274.22C313.64 274.302 313.535 274.232 313.535 274.081V271.976C313.535 271.813 313.651 271.627 313.779 271.546Z" fill="#2ED1C1"/>
<path d="M376.905 214.883V303.325C376.905 305.209 375.58 307.511 373.94 308.453L344.568 325.407C343.743 325.872 342.673 326.116 341.603 326.116C340.533 326.116 339.464 325.872 338.65 325.407L309.278 308.453C307.638 307.511 306.312 305.209 306.312 303.325V214.883H376.905Z" fill="#B9DCF8"/>
<path d="M341.603 214.883V326.116C340.533 326.116 339.464 325.872 338.65 325.407L309.278 308.453C307.638 307.511 306.312 305.209 306.312 303.325V214.883H341.603Z" fill="#8CC6F4"/>
<path d="M338.649 195.22L307.544 213.185C305.905 214.127 305.905 215.662 307.544 216.604L338.649 234.569C340.288 235.511 342.939 235.511 344.567 234.569L375.672 216.604C377.311 215.662 377.311 214.127 375.672 213.185L344.567 195.22C342.928 194.278 340.277 194.278 338.649 195.22Z" fill="#E2F1FC"/>
<path d="M346.242 241.232V316.837C346.242 318.104 347.126 318.616 348.219 317.988L348.556 317.779L372.044 304.209C372.591 303.895 373.079 303.349 373.451 302.732L371.289 301.279L346.847 239.29C346.486 239.907 346.254 240.604 346.254 241.244L346.242 241.232Z" fill="#00306F"/>
<path d="M374.014 225.581V225.197C374.014 223.941 373.13 223.43 372.037 224.057L371.851 224.162L348.223 237.813C347.677 238.127 347.189 238.674 346.828 239.29L371.177 301.441L373.444 302.732C373.793 302.116 374.026 301.418 374.014 300.802V225.569V225.581Z" fill="#004299"/>
<path d="M371.86 299.337C371.86 299.965 371.639 300.651 371.279 301.279C370.93 301.895 370.442 302.441 369.884 302.755L346.384 316.325L346.232 316.418V241.232C346.232 240.592 346.465 239.895 346.825 239.278C347.174 238.65 347.674 238.116 348.221 237.802L371.849 224.15V299.337H371.86Z" fill="#005FB8"/>
<path d="M336.973 241.233V316.837C336.973 318.105 336.089 318.617 334.996 317.989L334.659 317.779L311.171 304.21C310.624 303.896 310.136 303.349 309.764 302.733L311.926 301.279L336.368 239.291C336.729 239.907 336.961 240.605 336.961 241.244L336.973 241.233Z" fill="#00306F"/>
<path d="M309.199 225.581V225.197C309.199 223.941 310.083 223.43 311.188 224.058L311.374 224.162L335.002 237.814C335.548 238.128 336.036 238.674 336.397 239.29L312.048 301.442L309.781 302.732C309.432 302.116 309.199 301.418 309.211 300.802V225.569L309.199 225.581Z" fill="#004299"/>
<path d="M311.354 299.337C311.354 299.965 311.574 300.651 311.935 301.279C312.284 301.895 312.784 302.442 313.33 302.756L336.83 316.326L336.981 316.419V241.232C336.981 240.593 336.749 239.895 336.388 239.279C336.04 238.651 335.54 238.116 334.993 237.802L311.365 224.151V299.337H311.354Z" fill="#005FB8"/>
<path d="M327.539 259.686L329.214 258.709C329.551 258.511 329.83 258.034 329.83 257.639V249.081C329.83 248.616 329.667 248.093 329.4 247.627L322.062 251.872L327.539 259.674V259.686Z" fill="#B9DCF8"/>
<path d="M328.353 246.535L317.365 240.186C317.098 240.035 316.644 240.035 316.377 240.186L314.586 241.232L322.063 251.872L329.4 247.628C329.132 247.163 328.76 246.767 328.353 246.523V246.535Z" fill="#8CC6F4"/>
<path d="M315.631 241.337L326.503 247.616C327.317 248.081 327.98 249.232 327.98 250.163V258.721C327.98 259.663 327.317 260.035 326.503 259.57L315.631 253.29C314.817 252.825 314.154 251.674 314.154 250.744V242.186C314.154 241.244 314.817 240.872 315.631 241.337Z" fill="#E2F1FC"/>
<path d="M352.967 255.36L351.06 254.255C350.722 254.058 350.443 253.581 350.443 253.186V249.918C350.443 249.453 350.606 248.93 350.874 248.465L356.536 251.72L352.955 255.348L352.967 255.36Z" fill="#B9DCF8"/>
<path d="M351.912 247.383L365.795 239.348C366.063 239.197 366.516 239.197 366.784 239.348L368.807 240.523L356.528 251.732L350.865 248.476C351.133 248.011 351.505 247.616 351.912 247.372V247.383Z" fill="#8CC6F4"/>
<path d="M367.766 240.616L353.998 248.581C353.184 249.046 352.521 250.197 352.521 251.127V254.395C352.521 255.337 353.184 255.709 353.998 255.244L367.766 247.279C368.58 246.813 369.242 245.662 369.242 244.732V241.465C369.242 240.523 368.58 240.151 367.766 240.616Z" fill="#E2F1FC"/>
<path d="M352.967 270.523L351.06 269.418C350.722 269.22 350.443 268.744 350.443 268.348V265.081C350.443 264.616 350.606 264.092 350.874 263.627L356.536 266.883L352.955 270.511L352.967 270.523Z" fill="#B9DCF8"/>
<path d="M351.912 262.546L365.795 254.511C366.063 254.36 366.516 254.36 366.784 254.511L368.807 255.685L356.528 266.895L350.865 263.639C351.133 263.174 351.505 262.778 351.912 262.534V262.546Z" fill="#8CC6F4"/>
<path d="M367.766 255.79L353.998 263.755C353.184 264.22 352.521 265.371 352.521 266.301V269.569C352.521 270.511 353.184 270.894 353.998 270.418L367.766 262.453C368.58 261.987 369.242 260.836 369.242 259.906V256.639C369.242 255.697 368.58 255.325 367.766 255.79Z" fill="#E2F1FC"/>
<path d="M352.967 285.697L351.06 284.593C350.722 284.395 350.443 283.918 350.443 283.523V280.255C350.443 279.79 350.606 279.267 350.874 278.802L356.536 282.058L352.955 285.686L352.967 285.697Z" fill="#B9DCF8"/>
<path d="M351.912 277.709L365.795 269.674C366.063 269.511 366.516 269.523 366.784 269.674L368.807 270.849L356.528 282.058L350.865 278.802C351.133 278.337 351.505 277.942 351.912 277.697V277.709Z" fill="#8CC6F4"/>
<path d="M367.766 270.953L353.998 278.918C353.184 279.384 352.521 280.535 352.521 281.465V284.732C352.521 285.674 353.184 286.046 353.998 285.581L367.766 277.616C368.58 277.151 369.242 276 369.242 275.07V271.802C369.242 270.86 368.58 270.477 367.766 270.953Z" fill="#E2F1FC"/>
<path d="M352.967 300.86L351.06 299.755C350.722 299.558 350.443 299.081 350.443 298.686V295.418C350.443 294.953 350.606 294.43 350.874 293.965L356.536 297.22L352.955 300.848L352.967 300.86Z" fill="#B9DCF8"/>
<path d="M351.912 292.872L365.795 284.837C366.063 284.686 366.516 284.686 366.784 284.837L368.807 286.011L356.528 297.221L350.865 293.965C351.133 293.5 351.505 293.104 351.912 292.86V292.872Z" fill="#8CC6F4"/>
<path d="M367.766 286.116L353.998 294.081C353.184 294.546 352.521 295.697 352.521 296.627V299.895C352.521 300.837 353.184 301.209 353.998 300.744L367.766 292.779C368.58 292.313 369.242 291.162 369.242 290.232V286.965C369.242 286.023 368.58 285.651 367.766 286.116Z" fill="#E2F1FC"/>
<path d="M354.477 250.465L356.302 249.418C356.442 249.337 356.546 249.407 356.546 249.558V251.662C356.546 251.814 356.43 252.011 356.302 252.093L354.477 253.139C354.337 253.221 354.232 253.151 354.232 253V250.895C354.232 250.732 354.349 250.546 354.477 250.465Z" fill="#2ED1C1"/>
<path d="M354.477 265.628L356.302 264.581C356.442 264.5 356.546 264.569 356.546 264.721V266.825C356.546 266.988 356.43 267.174 356.302 267.255L354.477 268.302C354.337 268.383 354.232 268.314 354.232 268.162V266.058C354.232 265.907 354.349 265.709 354.477 265.628Z" fill="#2ED1C1"/>
<path d="M354.477 280.802L356.302 279.756C356.442 279.674 356.546 279.744 356.546 279.895V282C356.546 282.151 356.43 282.349 356.302 282.43L354.477 283.477C354.337 283.558 354.232 283.488 354.232 283.337V281.232C354.232 281.07 354.349 280.883 354.477 280.802Z" fill="#2ED1C1"/>
<path d="M354.477 295.965L356.302 294.918C356.442 294.837 356.546 294.907 356.546 295.058V297.162C356.546 297.325 356.43 297.511 356.302 297.593L354.477 298.639C354.337 298.721 354.232 298.651 354.232 298.5V296.395C354.232 296.232 354.349 296.046 354.477 295.965Z" fill="#2ED1C1"/>
<path d="M319.929 228.837V317.279C319.929 319.162 318.603 321.465 316.964 322.407L287.592 339.36C286.766 339.825 285.696 340.07 284.627 340.07C283.557 340.07 282.487 339.825 281.673 339.36L252.301 322.407C250.662 321.465 249.336 319.162 249.336 317.279V228.837H319.929Z" fill="#B9DCF8"/>
<path d="M284.627 228.837V340.07C283.557 340.07 282.487 339.825 281.673 339.36L252.301 322.407C250.662 321.465 249.336 319.162 249.336 317.279V228.837H284.627Z" fill="#8CC6F4"/>
<path d="M281.672 209.174L250.568 227.139C248.928 228.081 248.928 229.616 250.568 230.558L281.672 248.523C283.312 249.465 285.963 249.465 287.591 248.523L318.695 230.558C320.335 229.616 320.335 228.081 318.695 227.139L287.591 209.174C285.951 208.232 283.3 208.232 281.672 209.174Z" fill="#E2F1FC"/>
<path d="M289.262 255.186V330.791C289.262 332.058 290.145 332.57 291.238 331.942L291.576 331.732L315.064 318.163C315.611 317.849 316.099 317.302 316.471 316.686L314.308 315.232L289.866 253.244C289.506 253.86 289.273 254.558 289.273 255.197L289.262 255.186Z" fill="#00306F"/>
<path d="M317.034 239.534V239.151C317.034 237.895 316.15 237.383 315.057 238.011L314.871 238.116L291.243 251.767C290.697 252.081 290.208 252.627 289.848 253.244L314.196 315.395L316.464 316.686C316.813 316.069 317.045 315.372 317.034 314.755V239.523V239.534Z" fill="#004299"/>
<path d="M314.88 313.29C314.88 313.918 314.659 314.604 314.298 315.232C313.95 315.848 313.461 316.395 312.903 316.709L289.403 330.279L289.252 330.372V255.185C289.252 254.546 289.485 253.848 289.845 253.232C290.194 252.604 290.694 252.069 291.24 251.755L314.868 238.104V313.29H314.88Z" fill="#005FB8"/>
<path d="M279.994 255.186V330.791C279.994 332.058 279.111 332.57 278.018 331.942L277.68 331.732L254.192 318.163C253.646 317.849 253.157 317.302 252.785 316.686L254.948 315.232L279.39 253.244C279.75 253.86 279.983 254.558 279.983 255.197L279.994 255.186Z" fill="#00306F"/>
<path d="M252.221 239.534V239.151C252.221 237.895 253.104 237.383 254.209 238.011L254.395 238.116L278.023 251.767C278.57 252.081 279.058 252.627 279.418 253.244L255.07 315.395L252.802 316.686C252.453 316.069 252.221 315.372 252.232 314.755V239.523L252.221 239.534Z" fill="#004299"/>
<path d="M254.373 313.291C254.373 313.918 254.594 314.604 254.954 315.232C255.303 315.849 255.803 316.395 256.35 316.709L279.85 330.279L280.001 330.372V255.186C280.001 254.546 279.768 253.848 279.408 253.232C279.059 252.604 278.559 252.069 278.013 251.755L254.385 238.104V313.291H254.373Z" fill="#005FB8"/>
<path d="M270.557 273.639L272.231 272.662C272.568 272.465 272.848 271.988 272.848 271.592V263.034C272.848 262.569 272.685 262.046 272.417 261.581L265.08 265.825L270.557 273.627V273.639Z" fill="#B9DCF8"/>
<path d="M271.371 260.488L260.383 254.139C260.115 253.988 259.662 253.988 259.394 254.139L257.604 255.186L265.08 265.825L272.417 261.581C272.15 261.116 271.778 260.721 271.371 260.476V260.488Z" fill="#8CC6F4"/>
<path d="M258.649 255.291L269.521 261.57C270.335 262.035 270.997 263.186 270.997 264.116V272.674C270.997 273.616 270.335 273.988 269.521 273.523L258.649 267.244C257.835 266.779 257.172 265.628 257.172 264.698V256.139C257.172 255.198 257.835 254.825 258.649 255.291Z" fill="#E2F1FC"/>
<path d="M295.988 269.314L294.081 268.209C293.744 268.011 293.465 267.535 293.465 267.139V263.872C293.465 263.407 293.628 262.884 293.895 262.418L299.558 265.674L295.976 269.302L295.988 269.314Z" fill="#B9DCF8"/>
<path d="M294.933 261.337L308.817 253.302C309.084 253.151 309.538 253.151 309.805 253.302L311.829 254.477L299.549 265.686L293.887 262.43C294.154 261.965 294.526 261.57 294.933 261.325V261.337Z" fill="#8CC6F4"/>
<path d="M310.789 254.57L297.022 262.535C296.208 263 295.545 264.151 295.545 265.081V268.349C295.545 269.291 296.208 269.663 297.022 269.198L310.789 261.232C311.603 260.767 312.266 259.616 312.266 258.686V255.418C312.266 254.477 311.603 254.104 310.789 254.57Z" fill="#E2F1FC"/>
<path d="M295.988 284.476L294.081 283.372C293.744 283.174 293.465 282.697 293.465 282.302V279.035C293.465 278.569 293.628 278.046 293.895 277.581L299.558 280.837L295.976 284.465L295.988 284.476Z" fill="#B9DCF8"/>
<path d="M294.933 276.5L308.817 268.465C309.084 268.314 309.538 268.314 309.805 268.465L311.829 269.639L299.549 280.848L293.887 277.593C294.154 277.128 294.526 276.732 294.933 276.488V276.5Z" fill="#8CC6F4"/>
<path d="M310.789 269.744L297.022 277.709C296.208 278.174 295.545 279.325 295.545 280.256V283.523C295.545 284.465 296.208 284.849 297.022 284.372L310.789 276.407C311.603 275.942 312.266 274.79 312.266 273.86V270.593C312.266 269.651 311.603 269.279 310.789 269.744Z" fill="#E2F1FC"/>
<path d="M295.988 299.651L294.081 298.546C293.744 298.349 293.465 297.872 293.465 297.477V294.209C293.465 293.744 293.628 293.221 293.895 292.756L299.558 296.011L295.976 299.639L295.988 299.651Z" fill="#B9DCF8"/>
<path d="M294.933 291.662L308.817 283.628C309.084 283.465 309.538 283.476 309.805 283.628L311.829 284.802L299.549 296.011L293.887 292.755C294.154 292.29 294.526 291.895 294.933 291.651V291.662Z" fill="#8CC6F4"/>
<path d="M310.789 284.907L297.022 292.872C296.208 293.337 295.545 294.488 295.545 295.418V298.686C295.545 299.628 296.208 300 297.022 299.535L310.789 291.57C311.603 291.104 312.266 289.953 312.266 289.023V285.756C312.266 284.814 311.603 284.43 310.789 284.907Z" fill="#E2F1FC"/>
<path d="M295.988 314.814L294.081 313.709C293.744 313.511 293.465 313.035 293.465 312.639V309.372C293.465 308.907 293.628 308.383 293.895 307.918L299.558 311.174L295.976 314.802L295.988 314.814Z" fill="#B9DCF8"/>
<path d="M294.933 306.825L308.817 298.79C309.084 298.639 309.538 298.639 309.805 298.79L311.829 299.965L299.549 311.174L293.887 307.918C294.154 307.453 294.526 307.058 294.933 306.813V306.825Z" fill="#8CC6F4"/>
<path d="M310.789 300.069L297.022 308.034C296.208 308.5 295.545 309.651 295.545 310.581V313.848C295.545 314.79 296.208 315.162 297.022 314.697L310.789 306.732C311.603 306.267 312.266 305.116 312.266 304.186V300.918C312.266 299.976 311.603 299.604 310.789 300.069Z" fill="#E2F1FC"/>
<path d="M297.498 264.418L299.324 263.372C299.463 263.29 299.568 263.36 299.568 263.511V265.616C299.568 265.767 299.452 265.965 299.324 266.046L297.498 267.092C297.359 267.174 297.254 267.104 297.254 266.953V264.848C297.254 264.685 297.37 264.499 297.498 264.418Z" fill="#2ED1C1"/>
<path d="M297.498 279.581L299.324 278.535C299.463 278.453 299.568 278.523 299.568 278.674V280.779C299.568 280.942 299.452 281.128 299.324 281.209L297.498 282.256C297.359 282.337 297.254 282.267 297.254 282.116V280.012C297.254 279.86 297.37 279.663 297.498 279.581Z" fill="#2ED1C1"/>
<path d="M297.498 294.755L299.324 293.709C299.463 293.628 299.568 293.697 299.568 293.848V295.953C299.568 296.104 299.452 296.302 299.324 296.383L297.498 297.43C297.359 297.511 297.254 297.442 297.254 297.29V295.186C297.254 295.023 297.37 294.837 297.498 294.755Z" fill="#2ED1C1"/>
<path d="M297.498 309.919L299.324 308.872C299.463 308.791 299.568 308.86 299.568 309.012V311.116C299.568 311.279 299.452 311.465 299.324 311.546L297.498 312.593C297.359 312.674 297.254 312.605 297.254 312.453V310.349C297.254 310.186 297.37 310 297.498 309.919Z" fill="#2ED1C1"/>
<path opacity="0.7" d="M329.79 430.52L294.906 410.38L329.79 390.24L364.674 410.38L329.79 430.52Z" fill="#43BBED" fill-opacity="0.8"/>
<path opacity="0.5" d="M329.79 411.666L294.906 391.525L329.79 371.385L364.674 391.525L329.79 411.666Z" fill="#7ACEF3" fill-opacity="0.8"/>
<path opacity="0.3" d="M329.79 392.811L294.906 372.671L329.79 352.544L364.674 372.671L329.79 392.811Z" fill="#AFE2F8" fill-opacity="0.8"/>
<path opacity="0.7" d="M161.889 214.547L144.691 204.618L161.889 194.689L179.086 204.618L161.889 214.547Z" fill="#43BBED" fill-opacity="0.8"/>
<path opacity="0.5" d="M161.889 206.316L144.691 196.388L161.889 186.458L179.086 196.388L161.889 206.316Z" fill="#7ACEF3" fill-opacity="0.8"/>
<path opacity="0.3" d="M161.889 198.087L144.691 188.158L161.889 178.235L179.086 188.158L161.889 198.087Z" fill="#AFE2F8" fill-opacity="0.8"/>
<path opacity="0.7" d="M442.123 201.756L424.926 191.827L442.123 181.898L459.321 191.827L442.123 201.756Z" fill="#43BBED" fill-opacity="0.8"/>
<path opacity="0.5" d="M442.123 193.526L424.926 183.597L442.123 173.668L459.321 183.597L442.123 193.526Z" fill="#7ACEF3" fill-opacity="0.8"/>
<path opacity="0.3" d="M442.123 185.296L424.926 175.367L442.123 165.444L459.321 175.367L442.123 185.296Z" fill="#AFE2F8" fill-opacity="0.8"/>
<path d="M146.93 288L167.86 300.523L146.93 313.047L126 300.523L146.93 288Z" fill="#DCB251"/>
<path d="M146.93 313.046L126 325.561L146.93 338.084L167.86 325.561L146.93 313.046Z" fill="#924F23"/>
<path d="M126 300.523V325.561L146.93 338.084V313.046L126 300.523Z" fill="#E5C782"/>
<path d="M129.556 317.198L128.797 316.753V319.552L129.407 319.901L131.186 320.939V318.14L129.556 317.198Z" fill="#D29417" fill-opacity="0.5"/>
<path d="M131.483 323.599L138.172 327.48V326.224L131.771 322.509L128.797 320.782V322.038L131.483 323.599Z" fill="#D29417" fill-opacity="0.5"/>
<path d="M131.483 325.797L138.172 329.677V328.422L131.771 324.706L128.797 322.98V324.236L131.483 325.797Z" fill="#D29417" fill-opacity="0.5"/>
<path d="M167.856 300.523L146.926 313.046V338.084L167.856 325.561V300.523Z" fill="#D29417"/>
<path d="M158.705 295.038L156.472 293.703L135.176 306.009L137.4 307.343L158.705 295.038Z" fill="#F8F2E1"/>
<path d="M137.4 332.381V307.343L136.693 306.916L135.176 306.009V331.047L137.4 332.381Z" fill="#F8F2E1"/>
<path d="M141.638 296.538L142.021 296.765L149.739 292.308L149.356 292.082L141.638 296.538ZM142.431 297L142.815 297.227L150.533 292.77L150.149 292.552L142.431 297.009M143.225 297.462L143.609 297.689L151.327 293.233L150.943 293.015L143.225 297.471M139.771 295.457L141.036 296.189L146.417 293.084L145.152 292.352L139.771 295.457Z" fill="#DBB37A"/>
<path d="M139.108 315.677L167.015 332.375L139.108 349.073L111.201 332.375L139.108 315.677Z" fill="#DCB251"/>
<path d="M139.108 349.073L111.201 365.759L139.108 382.456L167.015 365.759L139.108 349.073Z" fill="#924F23"/>
<path d="M111.201 332.375V365.759L139.108 382.457V349.073L111.201 332.375Z" fill="#E5C782"/>
<path d="M115.941 354.608L114.93 354.015V357.747L115.744 358.212L118.116 359.596V355.863L115.941 354.608Z" fill="#D29417" fill-opacity="0.5"/>
<path d="M118.511 363.143L127.43 368.317V366.643L118.895 361.689L114.93 359.387V361.061L118.511 363.143Z" fill="#D29417" fill-opacity="0.5"/>
<path d="M118.511 366.073L127.43 371.247V369.573L118.895 364.619L114.93 362.317V363.991L118.511 366.073Z" fill="#D29417" fill-opacity="0.5"/>
<path d="M167.01 332.375L139.104 349.073V382.457L167.01 365.759V332.375Z" fill="#D29417"/>
<path d="M154.808 325.061L151.831 323.282L123.436 339.689L126.401 341.468L154.808 325.061Z" fill="#F8F2E1"/>
<path d="M126.401 374.852V341.468L125.459 340.898L123.436 339.689V373.073L126.401 374.852Z" fill="#F8F2E1"/>
<path d="M132.051 327.061L132.562 327.364L142.853 321.422L142.342 321.119L132.051 327.061ZM133.109 327.678L133.621 327.98L143.911 322.038L143.4 321.747L133.109 327.689M134.167 328.294L134.679 328.596L144.969 322.654L144.458 322.364L134.167 328.305M129.562 325.619L131.249 326.596L138.423 322.457L136.737 321.48L129.562 325.619Z" fill="#DBB37A"/>
<path d="M483.108 223.677L511.015 240.375L483.108 257.073L455.201 240.375L483.108 223.677Z" fill="#DCB251"/>
<path d="M483.108 257.073L455.201 273.759L483.108 290.456L511.015 273.759L483.108 257.073Z" fill="#924F23"/>
<path d="M455.201 240.375V273.759L483.108 290.457V257.073L455.201 240.375Z" fill="#E5C782"/>
<path d="M459.941 262.608L458.93 262.015V265.747L459.744 266.212L462.116 267.596V263.863L459.941 262.608Z" fill="#D29417" fill-opacity="0.5"/>
<path d="M462.511 271.143L471.43 276.317V274.643L462.895 269.689L458.93 267.387V269.061L462.511 271.143Z" fill="#D29417" fill-opacity="0.5"/>
<path d="M462.511 274.073L471.43 279.247V277.573L462.895 272.619L458.93 270.317V271.991L462.511 274.073Z" fill="#D29417" fill-opacity="0.5"/>
<path d="M511.01 240.375L483.104 257.073V290.457L511.01 273.759V240.375Z" fill="#D29417"/>
<path d="M498.808 233.061L495.831 231.282L467.436 247.689L470.401 249.468L498.808 233.061Z" fill="#F8F2E1"/>
<path d="M470.401 282.852V249.468L469.459 248.898L467.436 247.689V281.073L470.401 282.852Z" fill="#F8F2E1"/>
<path d="M476.051 235.061L476.562 235.364L486.853 229.422L486.342 229.119L476.051 235.061ZM477.109 235.678L477.621 235.98L487.911 230.038L487.4 229.747L477.109 235.689M478.167 236.294L478.679 236.596L488.969 230.654L488.458 230.364L478.167 236.305M473.562 233.619L475.249 234.596L482.423 230.457L480.737 229.48L473.562 233.619Z" fill="#DBB37A"/>
<path d="M285 229L285 131" stroke="url(#paint2_linear_218_10541)" stroke-width="2" stroke-linecap="round" stroke-dasharray="6 6"/>
<path d="M301 190L301 150" stroke="url(#paint3_linear_218_10541)" stroke-width="2" stroke-linecap="round" stroke-dasharray="6 6"/>
<path d="M342 215L342 170" stroke="url(#paint4_linear_218_10541)" stroke-width="2" stroke-linecap="round" stroke-dasharray="6 6"/>
<g filter="url(#filter0_d_218_10541)">
<path d="M265.139 55.238C269.063 52.97 274.463 53.294 280.439 56.732C283.769 58.658 286.919 61.34 289.727 64.508L312.173 51.548C309.365 48.38 306.215 45.698 302.885 43.772C296.909 40.316 291.509 40.01 287.585 42.278L265.139 55.238Z" fill="#E4E4E9"/>
<path d="M241.236 64.5442C244.944 61.7722 251.586 62.1682 258.949 66.4162L281.395 53.4562C274.033 49.2082 267.391 48.8122 263.683 51.5842L241.236 64.5442Z" fill="#E4E4E9"/>
<path d="M297.359 53.3302C302.579 50.3242 309.78 50.7562 317.754 55.3462C325.728 59.9542 332.928 67.8562 338.148 76.8922C343.35 85.9102 346.572 96.0802 346.572 105.242C346.572 109.436 345.906 113.018 344.682 116.006L367.128 103.046C368.352 100.076 369.018 96.4762 369.018 92.2822C369.018 83.1202 365.796 72.9502 360.594 63.9322C355.374 54.8782 348.156 46.9762 340.2 42.3862C332.244 37.7962 325.026 37.3642 319.806 40.3702L297.359 53.3302Z" fill="#F0F0F2"/>
<path d="M344.68 116.006C345.292 116.294 345.94 116.654 346.57 117.014C353.878 121.226 360.484 128.462 365.272 136.76C370.06 145.04 373.012 154.382 373.012 162.806C373.012 171.23 370.06 177.17 365.272 179.942L387.718 166.982C392.506 164.228 395.458 158.288 395.458 149.846C395.458 141.404 392.506 132.08 387.718 123.8C382.93 115.502 376.324 108.266 369.016 104.054C368.386 103.694 367.738 103.334 367.126 103.046L344.68 116.006Z" fill="#E4E4E9"/>
<path d="M240.136 64.5441C235.348 67.2981 232.414 73.2201 232.414 81.6441C232.414 90.0681 235.384 99.4281 240.172 107.726C244.96 116.024 251.584 123.26 258.874 127.472L346.572 178.106C353.88 182.318 360.486 182.714 365.274 179.942C370.062 177.188 373.014 171.248 373.014 162.806C373.014 154.364 370.062 145.04 365.274 136.76C360.486 128.462 353.88 121.226 346.572 117.014C345.942 116.654 345.294 116.294 344.682 116.006C345.906 113.036 346.572 109.436 346.572 105.242C346.572 96.0801 343.35 85.9101 338.148 76.8921C332.927 67.8381 325.709 59.9361 317.753 55.3461C309.797 50.7561 302.579 50.3241 297.359 53.3301C293.705 55.4361 291.023 59.2521 289.745 64.5081C286.937 61.3401 283.787 58.6581 280.457 56.7321C274.481 53.2761 269.081 52.9701 265.157 55.2381C261.79 57.1821 259.54 61.0341 258.946 66.4341C251.584 62.1861 244.942 61.7901 240.136 64.5621V64.5441Z" fill="url(#paint5_linear_218_10541)" stroke="#F0F0F2" stroke-width="0.900006" stroke-linejoin="round"/>
</g>
<path d="M264.204 108.086L269.28 105.152L267.984 108.77L262.908 111.722L264.204 108.086Z" fill="#8BC5F3"/>
<path d="M265.588 104.234L270.664 101.3L275.974 104.36L270.898 107.312L265.588 104.234Z" fill="#8BC5F3"/>
<path d="M268.27 96.7281L273.328 93.7761L270.664 101.3L265.588 104.234L268.27 96.7281Z" fill="#8BC5F3"/>
<path d="M271.332 91.8321L276.408 88.8801L284.13 118.094L279.054 121.046L271.332 91.8321Z" fill="#8BC5F3"/>
<path d="M284.436 99.3922L289.512 96.4402L292.536 116.204L287.478 119.156L284.436 99.3922Z" fill="#8BC5F3"/>
<path d="M294.155 113.468L299.231 110.516L295.631 124.736L290.555 127.688L294.155 113.468Z" fill="#8BC5F3"/>
<path d="M297.107 106.718L302.183 103.766L305.82 123.872L300.743 126.824L297.107 106.718Z" fill="#8BC5F3"/>
<path d="M309.565 113.9L314.641 110.948L308.953 132.44L303.877 135.374L309.565 113.9Z" fill="#8BC5F3"/>
<path d="M325.154 136.58C324.686 136.724 324.092 136.58 323.318 136.148C322.562 135.716 321.932 135.122 321.482 134.366C321.014 133.61 320.744 132.764 320.654 131.81L315.578 134.762C315.65 135.716 315.938 136.58 316.406 137.318C316.856 138.074 317.486 138.668 318.242 139.1C319.016 139.55 319.628 139.694 320.078 139.532C320.132 139.514 320.186 139.496 320.24 139.46L325.316 136.508C325.316 136.508 325.208 136.562 325.154 136.58Z" fill="#8BC5F3"/>
<path d="M316.133 122.846L321.209 119.894C320.867 120.092 320.705 120.524 320.705 121.19C320.705 121.982 321.029 122.792 321.695 123.62C322.343 124.448 323.351 125.51 324.755 126.842C326.141 128.174 327.275 129.344 328.139 130.352C329.003 131.342 329.759 132.494 330.389 133.808C331.019 135.104 331.325 136.49 331.325 137.966C331.325 139.442 331.001 140.486 330.389 141.278C330.155 141.584 329.867 141.818 329.561 141.998L324.485 144.95C324.809 144.77 325.079 144.518 325.313 144.23C325.943 143.438 326.249 142.34 326.249 140.918C326.249 139.496 325.943 138.056 325.313 136.76C324.683 135.446 323.927 134.294 323.063 133.304C322.199 132.314 321.065 131.126 319.679 129.794C318.293 128.462 317.267 127.4 316.619 126.572C315.971 125.744 315.629 124.934 315.629 124.142C315.629 123.476 315.791 123.044 316.133 122.846Z" fill="#8BC5F3"/>
<path d="M309.996 131.504L315.072 128.552L320.652 131.774L315.576 134.726L309.996 131.504Z" fill="#8BC5F3"/>
<path d="M265.264 88.3221L270.34 85.3701L276.406 88.8801L271.33 91.8321L265.264 88.3221Z" fill="#8BC5F3"/>
<path d="M278.82 96.1522L283.896 93.2002L289.512 96.4402L284.436 99.3922L278.82 96.1522Z" fill="#8BC5F3"/>
<path d="M291.363 103.388L296.439 100.436L302.181 103.766L297.105 106.718L291.363 103.388Z" fill="#8BC5F3"/>
<path d="M303.912 110.642L308.988 107.69L314.64 110.948L309.564 113.9L303.912 110.642Z" fill="#8BC5F3"/>
<path d="M328.751 120.704C327.311 118.562 325.385 116.798 323.027 115.43C320.705 114.098 318.815 113.648 317.357 114.116C317.159 114.188 316.961 114.26 316.781 114.368L311.705 117.32C311.885 117.212 312.065 117.14 312.281 117.068C313.739 116.6 315.629 117.05 317.951 118.382C320.327 119.75 322.235 121.496 323.675 123.656C325.115 125.798 325.889 128.066 325.979 130.442L331.055 127.49C330.965 125.114 330.191 122.846 328.751 120.704Z" fill="#8BC5F3"/>
<path d="M271.117 91.9958L278.658 120.528L273.727 117.678L272.475 112.67C272.462 112.62 272.436 112.576 272.398 112.543L272.357 112.513L264.329 107.87C264.265 107.833 264.188 107.826 264.118 107.851C264.066 107.871 264.021 107.906 263.992 107.953L263.969 108.002L262.773 111.355L257.729 108.444L265.393 88.6843L271.117 91.9958ZM268.266 96.4607C268.183 96.4569 268.107 96.4939 268.058 96.5564L268.019 96.6267L265.354 104.15C265.314 104.264 265.361 104.391 265.465 104.451L270.775 107.51C270.862 107.561 270.971 107.554 271.051 107.494C271.131 107.433 271.167 107.33 271.143 107.233L268.497 96.6492C268.47 96.5422 268.376 96.4659 268.266 96.4607Z" fill="#005FB8"/>
<path d="M271.117 91.9958L278.658 120.528L273.727 117.678L272.475 112.67C272.462 112.62 272.436 112.576 272.398 112.543L272.357 112.513L264.329 107.87C264.265 107.833 264.188 107.826 264.118 107.851C264.066 107.871 264.021 107.906 263.992 107.953L263.969 108.002L262.773 111.355L257.729 108.444L265.393 88.6843L271.117 91.9958ZM268.266 96.4607C268.183 96.4569 268.107 96.4939 268.058 96.5564L268.019 96.6267L265.354 104.15C265.314 104.264 265.361 104.391 265.465 104.451L270.775 107.51C270.862 107.561 270.971 107.554 271.051 107.494C271.131 107.433 271.167 107.33 271.143 107.233L268.497 96.6492C268.47 96.5422 268.376 96.4659 268.266 96.4607Z" stroke="#E2EAF0" style="mix-blend-mode:hard-light" stroke-width="0.5" stroke-linejoin="round"/>
<path d="M284.209 99.5486L287.233 119.194C287.252 119.312 287.351 119.401 287.47 119.406C287.589 119.411 287.694 119.331 287.723 119.216L291.531 103.771L296.885 106.876L300.501 126.869C300.523 126.987 300.625 127.073 300.745 127.074C300.865 127.075 300.969 126.99 300.992 126.872L304.093 111.033L309.275 114.021L303.72 134.994L297.749 131.56L294.404 113.423C294.383 113.307 294.284 113.223 294.167 113.219C294.079 113.216 293.998 113.259 293.951 113.329L293.916 113.407L290.397 127.305L284.428 123.856L279.171 96.6423L284.209 99.5486Z" fill="#005FB8"/>
<path d="M284.209 99.5486L287.233 119.194C287.252 119.312 287.351 119.401 287.47 119.406C287.589 119.411 287.694 119.331 287.723 119.216L291.531 103.771L296.885 106.876L300.501 126.869C300.523 126.987 300.625 127.073 300.745 127.074C300.865 127.075 300.969 126.99 300.992 126.872L304.093 111.033L309.275 114.021L303.72 134.994L297.749 131.56L294.404 113.423C294.383 113.307 294.284 113.223 294.167 113.219C294.079 113.216 293.998 113.259 293.951 113.329L293.916 113.407L290.397 127.305L284.428 123.856L279.171 96.6423L284.209 99.5486Z" stroke="#E2EAF0" style="mix-blend-mode:hard-light" stroke-width="0.5" stroke-linejoin="round"/>
<path d="M312.363 117.323C313.699 116.89 315.526 117.294 317.831 118.616C317.855 118.63 317.88 118.638 317.906 118.643C320.216 119.987 322.07 121.693 323.472 123.795C324.796 125.781 325.543 127.837 325.707 129.994L320.552 127.015C320.5 126.302 320.299 125.627 319.942 124.984L319.769 124.693C319.296 123.937 318.654 123.333 317.884 122.882L317.882 122.881L317.639 122.752C317.081 122.479 316.578 122.399 316.143 122.557L316.133 122.561C315.587 122.784 315.384 123.381 315.384 124.124C315.384 124.881 315.655 125.637 316.186 126.389L316.429 126.711C317.006 127.448 317.857 128.36 319.002 129.469L319.512 129.957C320.894 131.286 322.022 132.449 322.878 133.448L322.88 133.45C323.728 134.422 324.472 135.555 325.093 136.85V136.852C325.705 138.112 326.004 139.46 326.004 140.9C326.004 142.338 325.689 143.323 325.12 144.059C324.547 144.777 323.727 145.131 322.597 145.149C321.472 145.148 320.114 144.704 318.532 143.781C317.147 142.971 315.926 142.054 314.822 140.981L314.356 140.511C313.132 139.216 312.157 137.798 311.413 136.239C310.741 134.831 310.376 133.412 310.287 131.966L315.362 134.896C315.453 135.834 315.745 136.689 316.211 137.427V137.428C316.685 138.224 317.347 138.847 318.138 139.299C318.91 139.74 319.62 139.929 320.174 139.752C320.785 139.557 321.014 138.953 321.014 138.2C321.014 137.623 320.879 137.048 320.576 136.477L320.437 136.233C320.069 135.627 319.626 135.018 319.089 134.462C318.561 133.898 317.819 133.174 316.865 132.292C315.484 131 314.355 129.854 313.479 128.871C312.615 127.883 311.872 126.733 311.251 125.439H311.252C310.677 124.222 310.362 122.914 310.34 121.511V121.226C310.34 120.098 310.525 119.225 310.868 118.585C311.207 117.953 311.706 117.537 312.363 117.323Z" fill="#005FB8"/>
<path d="M312.363 117.323C313.699 116.89 315.526 117.294 317.831 118.616C317.855 118.63 317.88 118.638 317.906 118.643C320.216 119.987 322.07 121.693 323.472 123.795C324.796 125.781 325.543 127.837 325.707 129.994L320.552 127.015C320.5 126.302 320.299 125.627 319.942 124.984L319.769 124.693C319.296 123.937 318.654 123.333 317.884 122.882L317.882 122.881L317.639 122.752C317.081 122.479 316.578 122.399 316.143 122.557L316.133 122.561C315.587 122.784 315.384 123.381 315.384 124.124C315.384 124.881 315.655 125.637 316.186 126.389L316.429 126.711C317.006 127.448 317.857 128.36 319.002 129.469L319.512 129.957C320.894 131.286 322.022 132.449 322.878 133.448L322.88 133.45C323.728 134.422 324.472 135.555 325.093 136.85V136.852C325.705 138.112 326.004 139.46 326.004 140.9C326.004 142.338 325.689 143.323 325.12 144.059C324.547 144.777 323.727 145.131 322.597 145.149C321.472 145.148 320.114 144.704 318.532 143.781C317.147 142.971 315.926 142.054 314.822 140.981L314.356 140.511C313.132 139.216 312.157 137.798 311.413 136.239C310.741 134.831 310.376 133.412 310.287 131.966L315.362 134.896C315.453 135.834 315.745 136.689 316.211 137.427V137.428C316.685 138.224 317.347 138.847 318.138 139.299C318.91 139.74 319.62 139.929 320.174 139.752C320.785 139.557 321.014 138.953 321.014 138.2C321.014 137.623 320.879 137.048 320.576 136.477L320.437 136.233C320.069 135.627 319.626 135.018 319.089 134.462C318.561 133.898 317.819 133.174 316.865 132.292C315.484 131 314.355 129.854 313.479 128.871C312.615 127.883 311.872 126.733 311.251 125.439H311.252C310.677 124.222 310.362 122.914 310.34 121.511V121.226C310.34 120.098 310.525 119.225 310.868 118.585C311.207 117.953 311.706 117.537 312.363 117.323Z" stroke="#E2EAF0" style="mix-blend-mode:hard-light" stroke-width="0.5" stroke-linejoin="round"/>
<defs>
<filter id="filter0_d_218_10541" x="187.965" y="26.4553" width="251.494" height="231.705" filterUnits="userSpaceOnUse" color-interpolation-filters="sRGB">
<feFlood flood-opacity="0" result="BackgroundImageFix"/>
<feColorMatrix in="SourceAlpha" type="matrix" values="0 0 0 0 0 0 0 0 0 0 0 0 0 0 0 0 0 0 127 0" result="hardAlpha"/>
<feOffset dy="32"/>
<feGaussianBlur stdDeviation="22"/>
<feComposite in2="hardAlpha" operator="out"/>
<feColorMatrix type="matrix" values="0 0 0 0 0.0705882 0 0 0 0 0.0705882 0 0 0 0 0.0705882 0 0 0 0.05 0"/>
<feBlend mode="multiply" in2="BackgroundImageFix" result="effect1_dropShadow_218_10541"/>
<feBlend mode="normal" in="SourceGraphic" in2="effect1_dropShadow_218_10541" result="shape"/>
</filter>
<radialGradient id="paint0_radial_218_10541" cx="0" cy="0" r="1" gradientUnits="userSpaceOnUse" gradientTransform="translate(314 254.5) rotate(90) scale(216.5 337.505)">
<stop offset="0.5" stop-color="white"/>
<stop offset="1" stop-color="white" stop-opacity="0"/>
</radialGradient>
<radialGradient id="paint1_radial_218_10541" cx="0" cy="0" r="1" gradientUnits="userSpaceOnUse" gradientTransform="translate(309 303) rotate(90) scale(69.8053 118.869)">
<stop offset="0.652313" stop-color="white"/>
<stop offset="1" stop-color="white" stop-opacity="0"/>
</radialGradient>
<linearGradient id="paint2_linear_218_10541" x1="285.5" y1="131" x2="285.5" y2="229" gradientUnits="userSpaceOnUse">
<stop stop-color="#0E8FEA" stop-opacity="0"/>
<stop offset="1" stop-color="#0E8FEA"/>
</linearGradient>
<linearGradient id="paint3_linear_218_10541" x1="301.5" y1="150" x2="301.5" y2="190" gradientUnits="userSpaceOnUse">
<stop stop-color="#0E8FEA" stop-opacity="0"/>
<stop offset="1" stop-color="#0E8FEA"/>
</linearGradient>
<linearGradient id="paint4_linear_218_10541" x1="342.5" y1="170" x2="342.5" y2="215" gradientUnits="userSpaceOnUse">
<stop stop-color="#0E8FEA" stop-opacity="0"/>
<stop offset="1" stop-color="#0E8FEA"/>
</linearGradient>
<linearGradient id="paint5_linear_218_10541" x1="302.714" y1="51.4153" x2="302.714" y2="209" gradientUnits="userSpaceOnUse">
<stop stop-color="white"/>
<stop offset="1" stop-color="#F0F0F2"/>
</linearGradient>
</defs>
</svg>
